<?xml version="1.0" encoding="utf-8"?>
<!-- Generator: Adobe Illustrator 25.4.1, SVG Export Plug-In . SVG Version: 6.00 Build 0)  -->
<svg version="1.1" id="katman_1" xmlns="http://www.w3.org/2000/svg" xmlns:xlink="http://www.w3.org/1999/xlink" x="0px" y="0px"
	 viewBox="0 0 139.3 80" style="enable-background:new 0 0 139.3 80;" xml:space="preserve">
<style type="text/css">
	.st0{fill:#CF161C;}
	.st1{fill-rule:evenodd;clip-rule:evenodd;fill:#FFFFFF;}
	.st2{fill:none;stroke:#CF161C;stroke-width:2.6375;stroke-miterlimit:2.6131;}
</style>
<g transform="translate(-151 -0.172)">
	<rect x="151" y="0.2" class="st0" width="139.3" height="80"/>
</g>
<g>
	<path class="st1" d="M51.5,50c0.9-0.1,1.6-0.8,1.6-1.7V24.8c0-8.7,11.2-13,17.2-2.8c6.1,10.4,9.6,16.4,9.6,16.4V24.8
		c0-8.7,11.2-13,17.2-2.8c6.1,10.4,9.6,16.4,9.6,16.4V16.3h13.4v39c0,10-11.8,11.6-16.5,3.6C100.6,54.1,93.2,42,93.2,42v13.2
		c0.1,10-11.7,11.6-16.5,3.6C73.8,54.1,66.6,42,66.6,42v11.9c0,6.2-3.6,9.4-9.2,9.4h-13c-33.2,0-33.4-47-0.5-47h7.4v13.3
		c0,0-2,0-8.1,0c-13.5,0-15,20.4,0.9,20.4H51.5L51.5,50z"/>
	<path class="st2" d="M113.3,16.1v38.1c0,2.4-2.3,2.9-3.5,1.3c0,0-15.6-25.1-19.6-31.6c-1.2-1.7-3.7-1.1-3.7,1.4v28.9
		c0,2.4-2.2,2.9-3.4,1.3c0,0-15.7-25.1-19.7-31.6c-1.2-1.7-3.7-1.1-3.7,1.4V54c0,1.3-1,2.4-2.4,2.4H43.5c-23.6,0-22.9-33.6-0.6-33.6
		h8.5"/>
</g>
</svg>
