<?xml version="1.0" encoding="utf-8"?>
<!-- Generator: Adobe Illustrator 25.4.1, SVG Export Plug-In . SVG Version: 6.00 Build 0)  -->
<svg version="1.1" id="katman_1" xmlns="http://www.w3.org/2000/svg" xmlns:xlink="http://www.w3.org/1999/xlink" x="0px" y="0px"
	 viewBox="0 0 139.3 80" style="enable-background:new 0 0 139.3 80;" xml:space="preserve">
<style type="text/css">
	.st0{fill:#CF161C;}
	.st1{fill-rule:evenodd;clip-rule:evenodd;fill:#FFFFFF;}
	.st2{fill:#FFFFFF;}
	.st3{fill:none;stroke:#CF161C;stroke-width:2.6375;stroke-miterlimit:2.6131;}
</style>
<g transform="translate(-151 -0.172)">
	<rect x="151" y="0.2" class="st0" width="139.3" height="80"/>
	<g transform="translate(171.661 18.717)">
		<path class="st1" d="M0,0h5.8v6.6h6.4V0h5.8v18.8h-5.8v-7.6H5.8v7.6H0V0z"/>
		<path class="st1" d="M31.7,11.7l-2.1-6.8l-2.1,6.8L31.7,11.7z M32.9,15.7h-6.6l-0.9,3.1h-5.9l7-18.8h6.3l7,18.8h-6L32.9,15.7z"/>
		<path class="st1" d="M47.2,14.8h3c0.7,0.1,1.5-0.1,2.1-0.5c0.4-0.4,0.6-0.9,0.6-1.5c0-0.5-0.2-1-0.6-1.4c-0.6-0.4-1.4-0.6-2.1-0.5
			h-3V14.8z M47.2,7.4h2.6c0.7,0.1,1.3-0.1,1.8-0.5C52,6.5,52.2,6,52.1,5.5c0-0.5-0.1-0.9-0.5-1.2c-0.5-0.4-1.2-0.6-1.8-0.5h-2.6
			V7.4z M41.3,0h10.8c1.5-0.1,3,0.4,4.2,1.4c1,0.8,1.5,2,1.5,3.3c0,1-0.3,2-1,2.8c-0.5,0.6-1.2,1-2,1.2c1.2,0.2,2.2,0.8,3,1.7
			c0.7,0.8,1,1.9,1,2.9c0,0.9-0.2,1.8-0.7,2.6c-0.5,0.7-1.1,1.4-1.8,1.8c-0.7,0.3-1.4,0.5-2.2,0.6c-1.4,0.1-2.2,0.2-2.6,0.2H41.3V0z
			"/>
		<path class="st1" d="M61.2,0h15.6v4.1h-9.7V7h9v3.8h-9v3.7h10v4.3H61.2V0z"/>
		<path class="st1" d="M85.7,7.6h2.5c0.2,0,0.7-0.1,1.6-0.2c0.4-0.1,0.7-0.3,1-0.6C90.9,6.4,91,6,91,5.7c0-0.5-0.2-1-0.6-1.4
			c-0.7-0.4-1.4-0.6-2.2-0.5h-2.6v3.8H85.7z M79.9,18.8V0h9.7c1.4-0.1,2.7,0.1,4.1,0.5c0.9,0.2,1.7,0.9,2.2,1.7
			c0.6,0.9,0.9,2,0.9,3.1c0,0.9-0.2,1.9-0.6,2.7c-0.5,0.7-1.1,1.4-1.8,1.8c-0.7,0.3-1.4,0.6-2.1,0.7c0.5,0.1,1,0.4,1.5,0.7
			c0.4,0.3,0.7,0.6,1,1c0.4,0.5,0.7,0.9,0.9,1.1l2.8,5.4h-6.5L88.7,13c-0.2-0.6-0.6-1.1-1.1-1.5c-0.4-0.3-0.9-0.5-1.5-0.5h-0.5v7.6
			h-5.8V18.8z"/>
		<path class="st1" d="M0,27.8h17.7v4.7h-6v14.1H5.9V32.5H0V27.8z"/>
		<path class="st1" d="M37.7,27.8h5.8V39c0,1.1-0.1,2.2-0.5,3.2c-0.3,1-0.9,1.8-1.6,2.6c-0.7,0.7-1.5,1.2-2.3,1.6
			C37.8,46.8,36.4,47,35,47c-1,0-2-0.1-3-0.2c-0.9-0.1-1.9-0.3-2.7-0.7c-0.7-0.4-1.4-1-2-1.6c-0.5-0.7-1-1.4-1.2-2.2
			c-0.3-1-0.5-2.1-0.5-3.2V27.8h5.8v11.4c-0.1,0.9,0.3,1.8,0.9,2.5c0.6,0.6,1.5,0.9,2.3,0.9c0.9,0.1,1.7-0.2,2.3-0.9
			c0.6-0.7,0.9-1.6,0.9-2.5V27.8H37.7z"/>
		<path class="st1" d="M58.6,35.4h2.5c0.2,0,0.7-0.1,1.6-0.2c0.4-0.1,0.7-0.3,1-0.6c0.2-0.3,0.4-0.7,0.4-1.1c0-0.5-0.2-1-0.6-1.4
			c-0.7-0.4-1.4-0.6-2.2-0.5h-2.6V35.4z M52.7,46.6V27.8h9.7c1.4-0.1,2.8,0.1,4.2,0.5c0.9,0.3,1.8,0.9,2.3,1.7
			c0.6,0.9,0.9,2,0.9,3.1c0,0.9-0.2,1.9-0.6,2.7c-0.5,0.7-1.1,1.4-1.8,1.8c-0.7,0.3-1.4,0.6-2.1,0.7c0.5,0.1,1,0.4,1.5,0.7
			c0.4,0.3,0.7,0.6,1,1c0.4,0.5,0.7,0.9,0.9,1.1l2.8,5.4h-6.5l-3.3-5.8c-0.2-0.6-0.6-1.1-1.1-1.5C60,39,59.5,38.9,59,38.8h-0.5v7.6
			h-5.8V46.6z"/>
		<path class="st1" d="M78.4,27.8h5.8v7.1l6.1-7.1H98l-6.8,7.1l7.1,11.7h-7.1l-4.1-7.7L84.2,42v4.5h-5.8V27.8z"/>
		<rect x="0" y="21" class="st2" width="98.3" height="3.4"/>
	</g>
</g>
<path class="st1" d="M210.8-36.2c1.6-0.2,2.7-1.5,2.7-2.9v-41.4c0-15.4,19.7-22.8,30.3-4.9c10.7,18.3,16.8,29,16.8,29v-24.1
	c0-15.4,19.7-22.8,30.3-4.9c10.7,18.3,16.8,29,16.8,29v-39.1h23.6V-27c0,17.6-20.7,20.4-29.1,6.3c-5-8.3-18-29.6-18-29.6V-27
	c0.2,17.6-20.5,20.4-29.1,6.3c-5-8.3-17.8-29.6-17.8-29.6v21c0,10.8-6.3,16.5-16.2,16.5h-22.8c-58.4,0-58.9-82.8-0.8-82.8h12.9v23.5
	c0,0-3.6,0-14.2,0c-23.8,0-26.4,35.9,1.6,35.9H210.8L210.8-36.2z"/>
<path class="st3" d="M319.5-95.9v67.1c0,4.2-4,5.2-6.1,2.3c0,0-27.5-44.2-34.5-55.7c-2.1-2.9-6.5-1.9-6.5,2.4v51
	c0,4.2-3.9,5.2-6,2.3c0,0-27.7-44.2-34.6-55.7c-2.1-2.9-6.5-1.9-6.5,2.4V-29c0,2.3-1.8,4.2-4.2,4.2h-24.4c-41.6,0-40.3-59.2-1-59.2
	h15"/>
</svg>
