<?xml version="1.0" encoding="utf-8"?>
<!-- Generator: Adobe Illustrator 25.4.1, SVG Export Plug-In . SVG Version: 6.00 Build 0)  -->
<svg version="1.1" id="katman_1" xmlns="http://www.w3.org/2000/svg" xmlns:xlink="http://www.w3.org/1999/xlink" x="0px" y="0px"
	 viewBox="0 0 139.3 80" style="enable-background:new 0 0 139.3 80;" xml:space="preserve">
<style type="text/css">
	.st0{fill:#CF161C;}
	.st1{fill-rule:evenodd;clip-rule:evenodd;fill:#FFFFFF;}
	.st2{fill:none;stroke:#CF161C;stroke-width:2.6375;stroke-miterlimit:2.6131;}
</style>
<g transform="translate(-151 -0.172)">
	<rect x="151" y="0.2" class="st0" width="139.3" height="80"/>
</g>
<path class="st1" d="M210.8-36.2c1.6-0.2,2.7-1.5,2.7-2.9v-41.4c0-15.4,19.7-22.8,30.3-4.9c10.7,18.3,16.8,29,16.8,29v-24.1
	c0-15.4,19.7-22.8,30.3-4.9c10.7,18.3,16.8,29,16.8,29v-39.1h23.6V-27c0,17.6-20.7,20.4-29.1,6.3c-5-8.3-18-29.6-18-29.6V-27
	c0.2,17.6-20.5,20.4-29.1,6.3c-5-8.3-17.8-29.6-17.8-29.6v21c0,10.8-6.3,16.5-16.2,16.5h-22.8c-58.4,0-58.9-82.8-0.8-82.8h12.9v23.5
	c0,0-3.6,0-14.2,0c-23.8,0-26.4,35.9,1.6,35.9H210.8L210.8-36.2z"/>
<path class="st2" d="M319.5-95.9v67.1c0,4.2-4,5.2-6.1,2.3c0,0-27.5-44.2-34.5-55.7c-2.1-2.9-6.5-1.9-6.5,2.4v51
	c0,4.2-3.9,5.2-6,2.3c0,0-27.7-44.2-34.6-55.7c-2.1-2.9-6.5-1.9-6.5,2.4V-29c0,2.3-1.8,4.2-4.2,4.2h-24.4c-41.6,0-40.3-59.2-1-59.2
	h15"/>
<g>
	<path class="st1" d="M56.7,33.6H16.8c0.4-1.3,0.9-2.5,1.6-3.7h36.7C55.7,31.1,56.3,32.3,56.7,33.6z M53.8,51.9
		c-1.1,1.3-2.3,2.6-3.6,3.7H23c-1.3-1.1-2.4-2.3-3.3-3.7H53.8z M47.8,57.4C47,58,46.2,58.5,45.3,59c-2.7,1.2-5.6,1.8-8.6,1.8
		c-4,0-8-1.2-11.4-3.4H47.8z M57.6,39.1H15.8c0.1-1.3,0.2-2.5,0.5-3.7h40.8C57.4,36.6,57.6,37.8,57.6,39.1z M57.1,44.6H16.4
		c-0.3-1.2-0.5-2.4-0.5-3.7h41.8C57.5,42.2,57.4,43.4,57.1,44.6L57.1,44.6z M55,50.1H18.5c-0.7-1.1-1.2-2.4-1.6-3.6h39.7
		C56.2,47.7,55.6,48.9,55,50.1L55,50.1z M53.9,28H19.5c0.9-1.3,2-2.6,3.3-3.7h27.9C51.9,25.5,53,26.7,53.9,28z M48.3,22.5H25.2
		c3.4-2.3,7.5-3.5,11.6-3.5C41,19,45,20.3,48.3,22.5L48.3,22.5z"/>
	<path class="st1" d="M45.3,59c0.9-0.5,1.7-1,2.5-1.5L45.3,59z M50.2,55.6c1.3-1.1,2.5-2.4,3.6-3.7L50.2,55.6z M56.7,33.6H16.8
		c0.4-1.3,0.9-2.5,1.6-3.7h36.7C55.7,31.1,56.3,32.3,56.7,33.6L56.7,33.6z M56.5,46.5c-0.6,1.3-1.3,2.5-2.1,3.6H18.5
		c-0.7-1.1-1.2-2.4-1.6-3.6H56.5L56.5,46.5z M53,51.9c-1.1,1.3-2.4,2.6-3.7,3.7H23c-1.3-1.1-2.4-2.3-3.3-3.7H53L53,51.9z M46.7,57.4
		c-2.1,1.4-4.5,2.4-6.9,3.1c-1,0.2-2,0.2-3.1,0.2c-4,0-8-1.2-11.4-3.4H46.7L46.7,57.4z M57.6,39.1H15.8c0.1-1.3,0.2-2.5,0.5-3.7
		h40.8C57.4,36.6,57.6,37.8,57.6,39.1L57.6,39.1z M57.1,44.6H16.4c-0.3-1.2-0.5-2.4-0.5-3.7h41.8C57.5,42.2,57.4,43.4,57.1,44.6
		L57.1,44.6z M53.9,28H19.5c0.9-1.3,2-2.6,3.3-3.7h27.9C51.9,25.5,53,26.7,53.9,28z M48.3,22.5H25.2c3.4-2.3,7.5-3.5,11.6-3.5
		C41,19,45,20.3,48.3,22.5z"/>
	<path class="st1" d="M39.8,60.6c2.4-0.7,4.8-1.8,6.9-3.1L39.8,60.6L39.8,60.6z M49.3,55.6c1.4-1.1,2.6-2.3,3.7-3.7L49.3,55.6z
		 M54.4,50.1c0.8-1.1,1.5-2.4,2.1-3.6L54.4,50.1z M56.7,33.6H16.8c0.4-1.3,0.9-2.5,1.6-3.7h36.7C55.7,31.1,56.3,32.3,56.7,33.6z
		 M57.5,42.4c-0.2,0.8-0.5,1.5-0.8,2.2H16.4c-0.3-1.2-0.5-2.4-0.5-3.7h41.8C57.6,41.4,57.5,41.9,57.5,42.4L57.5,42.4z M55.9,46.5
		c-0.6,1.3-1.4,2.5-2.2,3.6H18.5c-0.7-1.1-1.2-2.4-1.6-3.6H55.9L55.9,46.5z M52.2,51.9c-1.2,1.4-2.5,2.6-3.9,3.7H23
		c-1.3-1.1-2.4-2.3-3.3-3.7H52.2L52.2,51.9z M45.6,57.4c-3,1.7-6.2,2.9-9.7,3.4c-3.7-0.1-7.4-1.3-10.5-3.4L45.6,57.4L45.6,57.4z
		 M57.6,39.1H15.8c0.1-1.3,0.2-2.5,0.5-3.7h40.8C57.4,36.6,57.6,37.8,57.6,39.1z M53.9,28H19.5c0.9-1.3,2-2.6,3.3-3.7h27.9
		C51.9,25.5,53,26.7,53.9,28z M48.3,22.5H25.2c3.4-2.3,7.5-3.5,11.6-3.5C41,19,45,20.3,48.3,22.5L48.3,22.5z"/>
	<path class="st1" d="M35.9,60.8c3.4-0.5,6.7-1.6,9.7-3.4L35.9,60.8L35.9,60.8z M48.3,55.6c1.4-1.1,2.7-2.3,3.9-3.7L48.3,55.6
		L48.3,55.6z M53.7,50.1c0.8-1.1,1.6-2.4,2.2-3.6L53.7,50.1z M56.7,44.6c0.3-0.7,0.6-1.5,0.8-2.2L56.7,44.6z M56.7,33.6H16.8
		c0.4-1.3,0.9-2.5,1.6-3.7h36.7C55.7,31.1,56.3,32.3,56.7,33.6L56.7,33.6z M57.3,40.9c-0.3,1.3-0.7,2.5-1.2,3.7H16.4
		c-0.3-1.2-0.5-2.4-0.5-3.7L57.3,40.9L57.3,40.9z M55.2,46.5c-0.7,1.3-1.4,2.5-2.3,3.6H18.5c-0.7-1.1-1.2-2.4-1.6-3.6H55.2
		L55.2,46.5z M51.4,51.9c-1.2,1.4-2.6,2.6-4.1,3.7H23c-1.3-1.1-2.4-2.3-3.3-3.7H51.4L51.4,51.9z M44.3,57.4c-3.5,1.9-7.4,2.9-11.4,3
		c-2.7-0.5-5.2-1.5-7.5-3L44.3,57.4L44.3,57.4z M57.6,39.1H15.8c0.1-1.3,0.2-2.5,0.5-3.7h40.8C57.4,36.6,57.6,37.8,57.6,39.1
		L57.6,39.1z M53.9,28H19.5c0.9-1.3,2-2.6,3.3-3.7h27.9C51.9,25.5,53,26.7,53.9,28z M48.3,22.5H25.2c3.4-2.3,7.5-3.5,11.6-3.5
		C41,19,45,20.3,48.3,22.5z"/>
	<path class="st1" d="M32.9,60.5c4-0.1,7.9-1.1,11.4-3L32.9,60.5z M47.3,55.6c1.5-1.1,2.9-2.3,4.1-3.7L47.3,55.6z M52.9,50.1
		c0.9-1.1,1.6-2.3,2.3-3.6L52.9,50.1z M56,44.6c0.5-1.2,0.9-2.4,1.2-3.7L56,44.6z M56.7,33.6H16.8c0.4-1.3,0.9-2.5,1.6-3.7h36.7
		C55.7,31.1,56.3,32.3,56.7,33.6z M57.4,36.6c-0.1,0.9-0.2,1.7-0.3,2.6H15.8c0.1-1.3,0.2-2.5,0.5-3.7h40.8
		C57.2,35.8,57.3,36.2,57.4,36.6z M56.6,40.9c-0.3,1.3-0.8,2.5-1.3,3.7h-39c-0.3-1.2-0.5-2.4-0.5-3.7L56.6,40.9L56.6,40.9z
		 M54.5,46.5c-0.7,1.3-1.5,2.5-2.3,3.6H18.5c-0.7-1.1-1.2-2.4-1.6-3.6H54.5L54.5,46.5z M50.6,51.9c-1.3,1.4-2.8,2.6-4.4,3.7H23
		c-1.3-1.1-2.4-2.3-3.3-3.7H50.6z M42.9,57.4c-3.4,1.6-7,2.4-10.8,2.4c-0.7,0-1.3,0-2-0.1c-1.7-0.6-3.3-1.3-4.8-2.3H42.9L42.9,57.4z
		 M53.9,28H19.5c0.9-1.3,2-2.6,3.3-3.7h27.9C51.9,25.5,53,26.7,53.9,28L53.9,28z M48.3,22.5H25.2c3.4-2.3,7.5-3.5,11.6-3.5
		C41,19,45,20.3,48.3,22.5L48.3,22.5z"/>
	<path class="st1" d="M30.2,59.8c0.7,0.1,1.3,0.1,2,0.1c3.7,0,7.4-0.8,10.8-2.4L30.2,59.8L30.2,59.8z M46.2,55.6
		c1.6-1.1,3.1-2.3,4.4-3.7L46.2,55.6z M52.1,50.1c0.9-1.1,1.7-2.3,2.3-3.6L52.1,50.1z M55.4,44.6c0.5-1.2,0.9-2.4,1.3-3.7L55.4,44.6
		z M57,39.1c0.2-0.8,0.3-1.7,0.3-2.6L57,39.1z M56.7,33.6H16.8c0.4-1.3,0.9-2.5,1.6-3.7h36.7C55.7,31.1,56.3,32.3,56.7,33.6
		L56.7,33.6z M56.8,35.4c0,1.2-0.2,2.5-0.4,3.7H15.8c0.1-1.3,0.2-2.5,0.5-3.7H56.8L56.8,35.4z M56,40.9c-0.3,1.3-0.8,2.5-1.3,3.7
		H16.4c-0.3-1.2-0.5-2.4-0.5-3.7H56L56,40.9z M53.8,46.5c-0.7,1.3-1.5,2.5-2.4,3.6H18.5c-0.7-1.1-1.2-2.4-1.6-3.6H53.8L53.8,46.5z
		 M49.7,51.9c-1.4,1.4-3,2.7-4.6,3.7H23c-1.3-1.1-2.4-2.3-3.3-3.7H49.7L49.7,51.9z M41.5,57.4c-2.9,1.2-6.1,1.8-9.3,1.8
		c-1.4,0-2.8-0.1-4.2-0.4c-0.9-0.4-1.8-0.9-2.6-1.5L41.5,57.4L41.5,57.4z M53.9,28H19.5c0.9-1.3,2-2.6,3.3-3.7h27.9
		C51.9,25.5,53,26.7,53.9,28z M48.3,22.5H25.2c3.4-2.3,7.5-3.5,11.6-3.5C41,19,45,20.3,48.3,22.5L48.3,22.5z"/>
	<path class="st1" d="M28,58.9c1.4,0.2,2.8,0.4,4.2,0.4c3.3,0,6.4-0.6,9.3-1.8L28,58.9L28,58.9z M45.1,55.6c1.7-1,3.2-2.3,4.6-3.7
		L45.1,55.6z M51.4,50.1c0.9-1.1,1.7-2.3,2.4-3.6L51.4,50.1z M54.7,44.6c0.5-1.2,1-2.4,1.3-3.7L54.7,44.6z M56.4,39.1
		c0.2-1.2,0.4-2.5,0.4-3.7L56.4,39.1z M56.2,35.4c0,1.3-0.2,2.5-0.4,3.7h-40c0.1-1.3,0.2-2.5,0.5-3.7H56.2L56.2,35.4z M55.4,40.9
		c-0.3,1.3-0.8,2.5-1.3,3.7H16.4c-0.3-1.2-0.5-2.4-0.5-3.7H55.4z M53.1,46.5c-0.7,1.3-1.6,2.5-2.5,3.6H18.5
		c-0.7-1.1-1.2-2.4-1.6-3.6H53.1L53.1,46.5z M48.9,51.9c-1.5,1.4-3.2,2.7-5,3.7H23c-1.3-1.1-2.4-2.3-3.3-3.7H48.9L48.9,51.9z
		 M39.7,57.4c-2.4,0.8-4.9,1.2-7.5,1.2c-2.1,0-4.2-0.3-6.2-0.8c-0.2-0.1-0.4-0.2-0.6-0.4L39.7,57.4L39.7,57.4z M56.1,32
		c0.1,0.5,0.1,1.1,0.1,1.6H16.8c0.4-1.3,0.9-2.5,1.6-3.7h36.7C55.4,30.6,55.8,31.3,56.1,32L56.1,32z M53.9,28H19.5
		c0.9-1.3,2-2.6,3.3-3.7h27.9C51.9,25.5,53,26.7,53.9,28L53.9,28z M48.3,22.5H25.2c3.4-2.3,7.5-3.5,11.6-3.5
		C41,19,45,20.3,48.3,22.5L48.3,22.5z"/>
	<path class="st1" d="M56.2,33.6c0-0.5-0.1-1.1-0.1-1.6L56.2,33.6z M26,57.8c2,0.5,4.1,0.8,6.2,0.8c2.6,0,5.1-0.4,7.5-1.2L26,57.8
		L26,57.8z M43.9,55.6c1.8-1,3.5-2.3,5-3.7L43.9,55.6z M50.6,50.1c0.9-1.1,1.8-2.3,2.5-3.6L50.6,50.1z M54,44.6
		c0.5-1.2,1-2.4,1.3-3.7L54,44.6z M55.8,39.1c0.2-1.2,0.4-2.5,0.4-3.7L55.8,39.1z M55.6,35.4c0,1.2-0.2,2.5-0.4,3.7H15.8
		c0.1-1.3,0.2-2.5,0.5-3.7H55.6L55.6,35.4z M54.7,40.9c-0.4,1.3-0.8,2.5-1.4,3.7h-37c-0.3-1.2-0.5-2.4-0.5-3.7H54.7L54.7,40.9z
		 M52.4,46.5c-0.8,1.3-1.6,2.5-2.6,3.6H18.5c-0.7-1.1-1.2-2.4-1.6-3.6H52.4L52.4,46.5z M48,51.9c-1.6,1.5-3.4,2.7-5.4,3.7H23
		c-1.3-1.1-2.4-2.3-3.3-3.7H48L48,51.9z M37.4,57.4C35.8,57.8,34,58,32.2,58c-1.8,0-3.6-0.2-5.3-0.6H37.4L37.4,57.4z M55.2,30
		c0.2,1.2,0.4,2.3,0.4,3.6H16.8c0.4-1.3,0.9-2.5,1.6-3.7h36.7L55.2,30L55.2,30z M53.9,28H19.5c0.9-1.3,2-2.6,3.3-3.7h27.9
		C51.9,25.5,53,26.7,53.9,28z M48.3,22.5H25.2c3.4-2.3,7.5-3.5,11.6-3.5C41,19,45,20.3,48.3,22.5L48.3,22.5z"/>
	<path class="st1" d="M55.6,33.6c-0.1-1.2-0.2-2.4-0.4-3.6L55.6,33.6z M26.9,57.4c1.7,0.4,3.4,0.6,5.3,0.6c1.8,0,3.6-0.2,5.3-0.6
		H26.9z M42.6,55.6c2-1,3.8-2.2,5.4-3.7L42.6,55.6z M49.8,50.1c1-1.1,1.9-2.3,2.6-3.6L49.8,50.1z M53.4,44.6c0.6-1.2,1-2.4,1.4-3.7
		L53.4,44.6L53.4,44.6z M55.2,39.1c0.2-1.2,0.4-2.5,0.4-3.7L55.2,39.1z M55,35.4c0,1.3-0.2,2.5-0.4,3.7H15.8
		c0.1-1.3,0.2-2.5,0.5-3.7H55L55,35.4z M54.1,40.9c-0.4,1.3-0.8,2.5-1.4,3.7H16.4c-0.3-1.2-0.5-2.4-0.5-3.7H54.1z M51.7,46.5
		C50.9,47.8,50,49,49,50.1H18.5c-0.7-1.1-1.2-2.4-1.6-3.6H51.7z M47.1,51.9c-1.8,1.5-3.8,2.8-5.9,3.7H23.3c-0.2-0.1-0.4-0.2-0.6-0.3
		c-1.1-1-2.2-2.2-3.1-3.4H47.1L47.1,51.9z M54.5,29.9c0.3,1.2,0.4,2.5,0.5,3.7H16.8c0.4-1.3,0.9-2.5,1.6-3.7H54.5L54.5,29.9z
		 M53.9,28H19.5c0.9-1.3,2-2.6,3.3-3.7h27.9C51.9,25.5,53,26.7,53.9,28z M48.3,22.5H25.2c3.4-2.3,7.5-3.5,11.6-3.5
		C41,19,45,20.3,48.3,22.5z"/>
	<path class="st1" d="M55,33.6c-0.1-1.3-0.2-2.5-0.5-3.7L55,33.6z M22.7,55.4c0.2,0.1,0.4,0.2,0.6,0.3L22.7,55.4z M41.1,55.6
		c2.2-0.9,4.2-2.2,5.9-3.7L41.1,55.6z M49,50.1c1-1.1,1.9-2.3,2.7-3.6L49,50.1L49,50.1z M52.7,44.6c0.6-1.2,1.1-2.4,1.4-3.7
		L52.7,44.6z M54.6,39.1c0.2-1.2,0.4-2.5,0.4-3.7L54.6,39.1z M54.4,35.4c0,1.3-0.2,2.5-0.4,3.7H15.8c0.1-1.3,0.2-2.5,0.5-3.7H54.4z
		 M53.5,40.9c-0.4,1.3-0.9,2.5-1.5,3.7H16.4c-0.3-1.2-0.5-2.4-0.5-3.7H53.5z M51,46.5c-0.8,1.3-1.8,2.5-2.8,3.6H18.5
		c-0.7-1.1-1.2-2.4-1.6-3.6H51z M46.1,51.9c-2,1.6-4.2,2.9-6.7,3.7H24.9c-1.3-0.4-2.5-1-3.7-1.7c-0.6-0.6-1.1-1.3-1.6-2L46.1,51.9
		L46.1,51.9z M53,26.8c0.2,0.4,0.3,0.9,0.4,1.3H19.5c0.9-1.3,2-2.6,3.3-3.7h27.9C51.5,25.1,52.3,25.9,53,26.8L53,26.8z M53.9,29.9
		c0.3,1.2,0.4,2.5,0.5,3.7H16.8c0.4-1.3,0.9-2.5,1.6-3.7H53.9z M48.3,22.5H25.2c3.4-2.3,7.5-3.5,11.6-3.5C41,19,45,20.3,48.3,22.5
		L48.3,22.5z"/>
	<path class="st1" d="M54.4,33.6c-0.1-1.3-0.2-2.5-0.5-3.7L54.4,33.6z M53.4,28c-0.1-0.4-0.3-0.9-0.4-1.3L53.4,28z M21.3,54
		c1.2,0.7,2.4,1.2,3.7,1.7L21.3,54z M39.4,55.6c2.4-0.8,4.7-2.1,6.7-3.7L39.4,55.6z M48.1,50.1c1.1-1.1,2-2.3,2.8-3.6L48.1,50.1
		L48.1,50.1z M52,44.6c0.6-1.2,1.1-2.4,1.5-3.7L52,44.6z M53.9,39.1c0.2-1.2,0.4-2.5,0.4-3.7L53.9,39.1z M53.8,35.4
		c0,1.3-0.2,2.5-0.5,3.7H15.8c0.1-1.3,0.2-2.5,0.5-3.7H53.8z M52.9,40.9c-0.4,1.3-0.9,2.5-1.5,3.7H16.4c-0.3-1.2-0.5-2.4-0.5-3.7
		H52.9L52.9,40.9z M50.3,46.5c-0.9,1.3-1.9,2.5-3,3.6H18.5c-0.7-1.1-1.2-2.4-1.6-3.6H50.3z M45.1,51.9c-2.3,1.8-5,3-7.9,3.7H27.1
		c-2.5-0.6-4.9-1.7-7.1-3.1c-0.1-0.2-0.3-0.4-0.4-0.6L45.1,51.9L45.1,51.9z M51.7,25.4c0.4,0.9,0.8,1.8,1.1,2.7H19.5
		c0.9-1.3,2-2.6,3.3-3.7h27.9C51,24.7,51.4,25,51.7,25.4L51.7,25.4z M53.3,29.9c0.3,1.2,0.4,2.4,0.5,3.7h-37
		c0.4-1.3,0.9-2.5,1.6-3.7H53.3L53.3,29.9z M48.3,22.5H25.2c3.4-2.3,7.5-3.5,11.6-3.5C41,19,45,20.3,48.3,22.5L48.3,22.5z"/>
	<path class="st1" d="M53.8,33.6c-0.1-1.3-0.2-2.5-0.5-3.7L53.8,33.6z M52.8,28c-0.3-0.9-0.6-1.8-1.1-2.7L52.8,28z M20.1,52.5
		c2.2,1.5,4.6,2.5,7.1,3.1L20.1,52.5L20.1,52.5z M37.2,55.6c2.9-0.7,5.5-1.9,7.9-3.7L37.2,55.6z M47.3,50.1c1.1-1.1,2.1-2.3,3-3.6
		L47.3,50.1L47.3,50.1z M51.3,44.6c0.6-1.2,1.1-2.4,1.5-3.7L51.3,44.6z M53.3,39.1c0.3-1.2,0.4-2.5,0.5-3.7L53.3,39.1z M53.2,35.4
		c0,1.3-0.2,2.5-0.5,3.7H15.8c0.1-1.3,0.2-2.5,0.5-3.7H53.2L53.2,35.4z M52.2,40.9c-0.4,1.3-0.9,2.5-1.6,3.7H16.4
		c-0.3-1.2-0.5-2.4-0.5-3.7H52.2L52.2,40.9z M49.5,46.5c-0.9,1.3-2,2.5-3.1,3.6H18.5c-0.7-1.1-1.2-2.4-1.6-3.6H49.5L49.5,46.5z
		 M44.1,51.9c-3.5,2.4-7.6,3.7-11.9,3.7c-4.2,0-8.4-1.3-11.9-3.7H44.1z M50.5,24.3c0.7,1.2,1.2,2.4,1.6,3.7H19.5
		c0.9-1.3,2-2.6,3.3-3.7L50.5,24.3L50.5,24.3z M52.6,29.9c0.3,1.2,0.5,2.4,0.5,3.7H16.8c0.4-1.3,0.9-2.5,1.6-3.7H52.6L52.6,29.9z
		 M48.3,22.5H25.2c3.4-2.3,7.5-3.5,11.6-3.5C41,19,45,20.3,48.3,22.5L48.3,22.5z"/>
	<path class="st1" d="M53.1,33.6c-0.1-1.3-0.2-2.5-0.5-3.7L53.1,33.6z M52.1,28c-0.4-1.3-1-2.5-1.6-3.7L52.1,28z M20.3,51.9
		c3.5,2.4,7.6,3.7,11.9,3.7c4.2,0,8.4-1.3,11.9-3.7H20.3L20.3,51.9z M46.4,50.1c1.2-1.1,2.2-2.3,3.1-3.6L46.4,50.1z M50.6,44.6
		c0.6-1.2,1.2-2.4,1.6-3.7L50.6,44.6z M52.7,39.1c0.3-1.2,0.4-2.4,0.5-3.7L52.7,39.1z M52.6,35.4c0,1.3-0.2,2.5-0.5,3.7H15.8
		c0.1-1.3,0.2-2.5,0.5-3.7H52.6L52.6,35.4z M51.6,40.9c-0.4,1.3-1,2.5-1.6,3.7H16.4c-0.3-1.2-0.5-2.4-0.5-3.7H51.6L51.6,40.9z
		 M48.8,46.5c-1,1.3-2.1,2.5-3.3,3.6H18.9c-0.3-0.3-0.6-0.5-0.9-0.8c-0.5-0.9-0.9-1.9-1.2-2.8H48.8L48.8,46.5z M43,51.9
		c-3.2,2-7,3.1-10.8,3.1c-3.8,0-7.5-1.1-10.8-3.1H43L43,51.9z M49.8,24.3c0.7,1.2,1.3,2.4,1.7,3.7h-32c0.9-1.3,2-2.6,3.3-3.7
		L49.8,24.3L49.8,24.3z M52,29.9c0.3,1.2,0.5,2.4,0.5,3.7H16.8c0.4-1.3,0.9-2.5,1.6-3.7H52L52,29.9z M48.3,22.5H25.2
		c3.4-2.3,7.5-3.5,11.6-3.5C41,19,45,20.3,48.3,22.5L48.3,22.5z"/>
	<path class="st1" d="M52.6,33.6c-0.1-1.3-0.2-2.5-0.5-3.7L52.6,33.6z M51.5,28c-0.4-1.3-1-2.5-1.7-3.7L51.5,28z M18.1,49.3
		c0.3,0.3,0.6,0.5,0.9,0.8L18.1,49.3z M21.4,51.9c3.2,2,7,3.1,10.8,3.1c3.8,0,7.5-1.1,10.8-3.1H21.4L21.4,51.9z M45.5,50.1
		c1.2-1.1,2.4-2.3,3.3-3.6L45.5,50.1z M50,44.6c0.7-1.2,1.2-2.4,1.6-3.7L50,44.6z M52.1,39.1c0.3-1.2,0.4-2.4,0.5-3.7L52.1,39.1z
		 M51.9,35.4c0,1.3-0.2,2.5-0.5,3.7H15.8c0.1-1.3,0.2-2.5,0.5-3.7H51.9L51.9,35.4z M50.9,40.9c-0.4,1.3-1,2.5-1.7,3.7H16.4
		c-0.3-1.2-0.5-2.4-0.5-3.7H50.9z M48,46.5c-1,1.3-2.2,2.6-3.5,3.6H19.9c-0.9-0.7-1.8-1.6-2.6-2.4c-0.2-0.4-0.3-0.8-0.4-1.2H48
		L48,46.5z M41.8,51.9c-2.9,1.6-6.2,2.5-9.6,2.5c-3.4,0-6.7-0.8-9.6-2.5H41.8z M47.3,21.9c0.2,0.2,0.3,0.4,0.5,0.6H25.2
		c3.4-2.3,7.5-3.5,11.6-3.5C40.5,19,44.1,20,47.3,21.9L47.3,21.9z M49.1,24.3c0.7,1.2,1.3,2.4,1.8,3.7H19.5c0.9-1.3,2-2.6,3.3-3.7
		H49.1L49.1,24.3z M51.4,29.9c0.3,1.2,0.5,2.4,0.5,3.7H16.8c0.4-1.3,0.9-2.5,1.6-3.7H51.4z"/>
	<path class="st1" d="M51.9,33.6c-0.1-1.3-0.2-2.5-0.5-3.7L51.9,33.6z M50.8,28c-0.5-1.3-1-2.5-1.8-3.7L50.8,28z M47.8,22.5
		c-0.2-0.2-0.3-0.4-0.5-0.6L47.8,22.5z M17.3,47.6c0.8,0.9,1.6,1.7,2.6,2.4L17.3,47.6z M22.6,51.9c2.9,1.6,6.2,2.5,9.6,2.5
		c3.4,0,6.7-0.8,9.6-2.5H22.6z M44.5,50.1c1.3-1.1,2.5-2.3,3.5-3.6L44.5,50.1z M49.2,44.6c0.7-1.2,1.3-2.4,1.7-3.7L49.2,44.6z
		 M51.4,39.1c0.3-1.2,0.5-2.4,0.5-3.7L51.4,39.1z M51.3,35.4c-0.1,1.3-0.2,2.5-0.5,3.7h-35c0.1-1.3,0.2-2.5,0.5-3.7H51.3z
		 M50.3,40.9c-0.5,1.3-1,2.5-1.8,3.7H16.4c-0.3-1.2-0.5-2.4-0.5-3.7H50.3L50.3,40.9z M47.2,46.5c-1.1,1.4-2.3,2.6-3.7,3.6H20.9
		c-1.4-1-2.7-2.2-3.7-3.6H47.2z M40.4,51.9c-2.5,1.2-5.3,1.9-8.2,1.9c-2.9,0-5.7-0.7-8.2-1.9H40.4z M45.7,21c0.5,0.5,0.9,1,1.3,1.5
		H25.2c3.4-2.3,7.5-3.5,11.6-3.5C39.9,19,43,19.7,45.7,21z M48.4,24.3c0.7,1.2,1.3,2.4,1.8,3.7H19.5c0.9-1.3,2-2.6,3.3-3.7
		L48.4,24.3L48.4,24.3z M50.7,29.9c0.3,1.2,0.5,2.4,0.6,3.7H16.8c0.4-1.3,0.9-2.5,1.6-3.7H50.7L50.7,29.9z"/>
	<path class="st1" d="M51.3,33.6c-0.1-1.3-0.3-2.5-0.6-3.7L51.3,33.6z M50.2,28c-0.5-1.3-1.1-2.5-1.8-3.7L50.2,28z M47,22.5
		c-0.4-0.5-0.9-1-1.3-1.5L47,22.5z M17.1,46.5c1.1,1.4,2.3,2.6,3.7,3.6L17.1,46.5z M23.9,51.9c2.5,1.2,5.3,1.9,8.2,1.9
		s5.7-0.7,8.2-1.9H23.9L23.9,51.9z M43.5,50.1c1.4-1,2.7-2.2,3.7-3.6L43.5,50.1z M48.5,44.6c0.7-1.2,1.3-2.4,1.8-3.7L48.5,44.6z
		 M50.8,39.1c0.3-1.2,0.5-2.4,0.5-3.7L50.8,39.1z M50.7,35.4c-0.1,1.3-0.2,2.5-0.5,3.7H15.8c0.1-1.3,0.2-2.5,0.5-3.7H50.7z
		 M49.6,40.9c-0.5,1.3-1.1,2.5-1.8,3.7H16.6c-0.1-0.2-0.2-0.3-0.3-0.5c-0.2-1-0.4-2.1-0.4-3.2L49.6,40.9L49.6,40.9z M46.5,46.5
		c-1.2,1.4-2.5,2.6-4,3.6H22c-1.5-1-2.9-2.2-4-3.6H46.5z M38.9,51.9c-2.1,0.8-4.4,1.2-6.7,1.2c-2.4,0-4.6-0.4-6.7-1.2H38.9z
		 M44,20.3c0.8,0.7,1.6,1.4,2.3,2.2H25.2c3.4-2.3,7.5-3.5,11.6-3.5C39.3,19,41.7,19.5,44,20.3L44,20.3z M47.6,24.3
		c0.8,1.2,1.4,2.4,1.9,3.7h-30c0.9-1.3,2-2.6,3.3-3.7L47.6,24.3L47.6,24.3z M50.1,29.9c0.3,1.2,0.5,2.4,0.6,3.7H16.8
		c0.4-1.3,0.9-2.5,1.6-3.7H50.1z"/>
	<path class="st1" d="M50.7,33.6c-0.1-1.3-0.3-2.5-0.6-3.7L50.7,33.6z M49.5,28c-0.5-1.3-1.1-2.5-1.9-3.7L49.5,28z M46.3,22.5
		c-0.7-0.8-1.4-1.5-2.3-2.2L46.3,22.5L46.3,22.5z M16.3,44.1c0.1,0.2,0.2,0.3,0.3,0.5L16.3,44.1z M17.9,46.5c1.2,1.4,2.5,2.6,4,3.6
		L17.9,46.5L17.9,46.5z M25.5,51.9c2.1,0.8,4.4,1.2,6.7,1.2c2.4,0,4.6-0.4,6.7-1.2H25.5z M42.4,50.1c1.5-1,2.9-2.2,4-3.6L42.4,50.1z
		 M47.8,44.6c0.7-1.2,1.4-2.4,1.8-3.7L47.8,44.6z M50.2,39.1c0.3-1.2,0.5-2.5,0.5-3.7L50.2,39.1z M50.1,35.4
		c-0.1,1.3-0.2,2.5-0.6,3.7H15.8c0.1-1.3,0.2-2.5,0.5-3.7H50.1z M49,40.9c-0.5,1.3-1.1,2.5-1.9,3.7H17.3c-0.5-0.8-1-1.5-1.3-2.4
		c-0.1-0.4-0.1-0.9-0.1-1.3H49z M45.7,46.5c-1.3,1.4-2.7,2.6-4.4,3.6H23.1c-1.6-1-3.1-2.2-4.4-3.6H45.7z M37,51.9
		c-1.6,0.4-3.2,0.6-4.8,0.6c-1.7,0-3.3-0.2-4.8-0.6H37z M42.3,19.7c1.2,0.8,2.2,1.7,3.2,2.8H25.2c3.4-2.3,7.5-3.5,11.6-3.5
		C38.7,19,40.5,19.3,42.3,19.7L42.3,19.7z M46.9,24.3c0.8,1.2,1.5,2.4,2,3.7H19.5c0.9-1.3,2-2.6,3.3-3.7L46.9,24.3L46.9,24.3z
		 M49.5,29.9c0.3,1.2,0.5,2.4,0.6,3.7H16.8c0.4-1.3,0.9-2.5,1.6-3.7H49.5z"/>
	<path class="st1" d="M50.1,33.6c-0.1-1.3-0.3-2.5-0.6-3.7L50.1,33.6z M48.9,28c-0.5-1.3-1.2-2.5-2-3.7L48.9,28z M45.4,22.5
		c-1-1-2-2-3.2-2.8L45.4,22.5z M16,42.3c0.4,0.8,0.8,1.6,1.3,2.4L16,42.3z M18.7,46.5c1.3,1.4,2.7,2.6,4.4,3.6L18.7,46.5z
		 M27.4,51.9c1.6,0.4,3.2,0.6,4.8,0.6c1.7,0,3.3-0.2,4.8-0.6H27.4z M41.3,50.1c1.6-1,3.1-2.2,4.4-3.6L41.3,50.1z M47.1,44.6
		c0.8-1.2,1.4-2.4,1.9-3.7L47.1,44.6z M49.6,39.1c0.3-1.2,0.5-2.4,0.6-3.7L49.6,39.1z M49.5,35.4c-0.1,1.3-0.2,2.5-0.6,3.7H15.8
		c0.1-1.3,0.2-2.5,0.5-3.7H49.5L49.5,35.4z M48.3,40.9c-0.5,1.3-1.2,2.5-2,3.7H18c-0.8-1.1-1.5-2.4-2-3.7H48.3L48.3,40.9z
		 M44.8,46.5c-1.4,1.5-3,2.7-4.8,3.6H24.4c-1.8-0.9-3.4-2.1-4.8-3.6H44.8z M33.2,51.9c-0.3,0-0.6,0-1,0c-0.3,0-0.6,0-1,0H33.2z
		 M40.4,19.3c1.6,0.8,3,1.9,4.2,3.2H25.2c3.4-2.3,7.5-3.5,11.6-3.5C38,19,39.2,19.1,40.4,19.3z M46.2,24.3c0.8,1.1,1.5,2.4,2.1,3.7
		H19.5c0.9-1.3,2-2.6,3.3-3.7L46.2,24.3L46.2,24.3z M48.9,29.9c0.3,1.2,0.6,2.5,0.6,3.7H16.8c0.4-1.3,0.9-2.5,1.6-3.7H48.9z"/>
	<path class="st1" d="M50.1,33.6c-0.1-1.3-0.3-2.5-0.6-3.7L50.1,33.6z M48.9,28c-0.5-1.3-1.2-2.5-2-3.7L48.9,28z M45.4,22.5
		c-1-1.1-2-2-3.2-2.8L45.4,22.5z M16,42.3c0.4,0.8,0.8,1.6,1.3,2.4L16,42.3z M18.7,46.5c1.3,1.4,2.7,2.6,4.4,3.6L18.7,46.5
		L18.7,46.5z M27.5,51.9c1.5,0.4,3.1,0.6,4.7,0.6c1.6,0,3.2-0.2,4.7-0.6H27.5L27.5,51.9z M41.3,50.1c1.6-1,3.1-2.2,4.4-3.6
		L41.3,50.1z M47.1,44.6c0.8-1.2,1.4-2.4,1.9-3.7L47.1,44.6z M49.6,39.1c0.3-1.2,0.5-2.5,0.6-3.7L49.6,39.1z M49.9,35.4
		c-0.1,1.3-0.2,2.5-0.6,3.7H15.8c0.1-1.3,0.2-2.5,0.5-3.7H49.9L49.9,35.4z M48.8,40.9c-0.5,1.3-1.1,2.5-1.9,3.7H17.5
		c-0.6-0.9-1.2-1.9-1.6-3c0-0.2,0-0.5-0.1-0.7H48.8L48.8,40.9z M45.4,46.5c-1.3,1.4-2.8,2.7-4.5,3.6H23.5c-1.7-1-3.2-2.2-4.5-3.6
		H45.4L45.4,46.5z M36.1,51.9c-1.3,0.3-2.6,0.4-3.9,0.4s-2.6-0.1-3.9-0.4H36.1z M41.6,19.6c1.3,0.8,2.5,1.8,3.6,2.9h-20
		c3.4-2.3,7.5-3.5,11.6-3.5C38.4,19,40,19.2,41.6,19.6L41.6,19.6z M46.7,24.3c0.8,1.1,1.5,2.4,2,3.7H19.5c0.9-1.3,2-2.6,3.3-3.7
		L46.7,24.3L46.7,24.3z M49.3,29.9c0.3,1.2,0.5,2.4,0.6,3.7H16.8c0.4-1.3,0.9-2.5,1.6-3.7H49.3L49.3,29.9z"/>
	<path class="st1" d="M49.9,33.6c-0.1-1.3-0.3-2.5-0.6-3.7L49.9,33.6z M48.7,28c-0.5-1.3-1.2-2.5-2-3.7L48.7,28z M45.2,22.5
		c-1.1-1.1-2.2-2.1-3.6-2.9L45.2,22.5z M15.9,41.7c0.5,1,1,2,1.6,3L15.9,41.7L15.9,41.7z M19,46.5c1.3,1.4,2.8,2.7,4.5,3.6L19,46.5z
		 M28.3,51.9c1.3,0.3,2.6,0.4,3.9,0.4s2.6-0.1,3.9-0.4H28.3L28.3,51.9z M40.9,50.1c1.7-1,3.2-2.2,4.5-3.6L40.9,50.1z M46.8,44.6
		c0.8-1.2,1.4-2.4,1.9-3.7L46.8,44.6z M49.4,39.1c0.3-1.2,0.5-2.4,0.6-3.7L49.4,39.1L49.4,39.1z M49.7,35.4
		c-0.1,1.3-0.2,2.5-0.6,3.7H15.8c0.1-1.3,0.2-2.5,0.5-3.7H49.7z M48.6,40.9c-0.5,1.3-1.2,2.5-2,3.7H17.8c-0.8-1.1-1.4-2.3-1.9-3.6
		l0-0.1L48.6,40.9L48.6,40.9z M45.1,46.5c-1.3,1.5-2.9,2.7-4.7,3.6H23.9c-1.7-0.9-3.3-2.2-4.7-3.6H45.1z M35.1,51.9
		c-1.9,0.3-3.9,0.3-5.8,0H35.1z M41,19.5c1.4,0.8,2.7,1.9,3.9,3.1H25.2c3.4-2.3,7.5-3.5,11.6-3.5C38.2,19,39.6,19.2,41,19.5z
		 M46.4,24.3c0.8,1.1,1.5,2.4,2,3.7H19.5c0.9-1.3,2-2.6,3.3-3.7L46.4,24.3L46.4,24.3z M49.1,29.9c0.3,1.2,0.5,2.5,0.6,3.7H16.8
		c0.4-1.3,0.9-2.5,1.6-3.7H49.1L49.1,29.9z"/>
	<path class="st1" d="M49.7,33.6c-0.1-1.3-0.3-2.5-0.6-3.7L49.7,33.6z M48.5,28c-0.5-1.3-1.2-2.6-2-3.7L48.5,28z M44.9,22.5
		c-1.1-1.2-2.4-2.2-3.9-3.1L44.9,22.5z M15.9,41.1c0.5,1.3,1.1,2.5,1.9,3.6L15.9,41.1z M19.2,46.5c1.3,1.5,2.9,2.7,4.7,3.6
		L19.2,46.5L19.2,46.5z M29.3,51.9c1.9,0.3,3.9,0.3,5.8,0H29.3z M40.5,50.1c1.7-0.9,3.3-2.2,4.7-3.6L40.5,50.1z M46.6,44.6
		c0.8-1.1,1.5-2.4,2-3.7L46.6,44.6z M49.2,39.1c0.3-1.2,0.5-2.5,0.6-3.7L49.2,39.1z M49.5,35.4c-0.1,1.3-0.2,2.5-0.6,3.7H15.8
		c0.1-1.3,0.2-2.5,0.5-3.7H49.5z M48.4,40.9c-0.5,1.3-1.2,2.5-2,3.7H18c-0.8-1.1-1.5-2.4-2-3.7H48.4z M44.9,46.5
		c-1.4,1.5-3,2.7-4.8,3.6H24.3c-1.8-0.9-3.4-2.1-4.8-3.6H44.9L44.9,46.5z M33.6,51.9c-0.9,0.1-1.8,0.1-2.7,0H33.6z M40.4,19.3
		c1.6,0.8,3,1.9,4.2,3.2H25.2c3.4-2.3,7.5-3.5,11.6-3.5C38,19,39.2,19.1,40.4,19.3L40.4,19.3z M46.2,24.3c0.8,1.1,1.5,2.4,2.1,3.7
		H19.5c0.9-1.3,2-2.6,3.3-3.7L46.2,24.3L46.2,24.3z M48.9,29.9c0.3,1.2,0.6,2.4,0.6,3.7H16.8c0.4-1.3,0.9-2.5,1.6-3.7H48.9
		L48.9,29.9z"/>
	<path class="st1" d="M49.5,33.6c-0.1-1.3-0.3-2.5-0.6-3.7L49.5,33.6z M48.3,28c-0.5-1.3-1.2-2.6-2.1-3.7L48.3,28z M44.6,22.5
		c-1.2-1.3-2.6-2.3-4.2-3.2L44.6,22.5z M16,40.9c0.5,1.3,1.2,2.5,2,3.7L16,40.9z M19.5,46.5c1.4,1.5,3,2.7,4.8,3.6L19.5,46.5
		L19.5,46.5z M30.8,51.9c0.9,0.1,1.8,0.1,2.7,0H30.8z M40.1,50.1c1.8-0.9,3.4-2.1,4.8-3.6L40.1,50.1z M46.4,44.6
		c0.8-1.1,1.5-2.4,2-3.7L46.4,44.6z M49,39.1c0.3-1.2,0.5-2.4,0.6-3.7L49,39.1z M49.4,35.4c-0.1,1.3-0.3,2.5-0.6,3.7H15.8
		c0.1-1.3,0.2-2.5,0.5-3.7H49.4L49.4,35.4z M48.2,40.9c-0.5,1.3-1.2,2.6-2,3.7H18.3c-0.8-1.1-1.5-2.4-2-3.7H48.2L48.2,40.9z
		 M44.6,46.5c-1.4,1.5-3.1,2.7-5,3.6H24.7c-1.9-0.9-3.5-2.1-5-3.6H44.6z M39.8,19.2c1.7,0.8,3.2,1.9,4.5,3.3H25.2
		c3.4-2.3,7.5-3.5,11.6-3.5C37.8,19,38.8,19.1,39.8,19.2L39.8,19.2z M46,24.3c0.9,1.1,1.6,2.4,2.1,3.7H19.5c0.9-1.3,2-2.6,3.3-3.7
		H46z M48.7,29.9c0.3,1.2,0.6,2.5,0.6,3.7H16.8c0.4-1.3,0.9-2.5,1.6-3.7H48.7L48.7,29.9z"/>
	<path class="st1" d="M49.3,33.6c-0.1-1.3-0.3-2.5-0.6-3.7L49.3,33.6z M48.1,28c-0.5-1.3-1.3-2.6-2.1-3.7L48.1,28z M44.4,22.5
		c-1.3-1.3-2.9-2.4-4.5-3.3L44.4,22.5L44.4,22.5z M16.2,40.9c0.5,1.3,1.2,2.6,2,3.7L16.2,40.9z M19.8,46.5c1.4,1.5,3.1,2.7,5,3.6
		L19.8,46.5L19.8,46.5z M39.7,50.1c1.9-0.9,3.5-2.1,5-3.6L39.7,50.1z M46.1,44.6c0.8-1.1,1.5-2.4,2-3.7L46.1,44.6z M48.8,39.1
		c0.3-1.2,0.5-2.4,0.6-3.7L48.8,39.1z M49.2,35.4c-0.1,1.3-0.3,2.5-0.6,3.7H15.8c0.1-1.3,0.2-2.5,0.5-3.7H49.2z M48,40.9
		c-0.5,1.3-1.2,2.6-2.1,3.7H18.5c-0.8-1.1-1.5-2.4-2.1-3.7H48z M44.4,46.5c-1.5,1.5-3.2,2.7-5.1,3.6h-14c-1.9-0.9-3.7-2.1-5.1-3.6
		H44.4z M39.2,19.2c1.8,0.8,3.5,2,4.9,3.4h-19c3.4-2.3,7.5-3.5,11.6-3.5C37.6,19,38.4,19.1,39.2,19.2L39.2,19.2z M45.7,24.3
		c0.9,1.1,1.6,2.4,2.1,3.7H19.5c0.9-1.3,2-2.6,3.3-3.7H45.7z M48.5,29.9c0.4,1.2,0.6,2.5,0.6,3.7H16.8c0.4-1.3,0.9-2.5,1.6-3.7H48.5
		L48.5,29.9z"/>
	<path class="st1" d="M49.2,33.6c-0.1-1.3-0.3-2.5-0.6-3.7L49.2,33.6z M47.9,28c-0.6-1.3-1.3-2.6-2.1-3.7L47.9,28z M44.1,22.5
		c-1.4-1.4-3.1-2.5-4.9-3.4L44.1,22.5z M16.4,40.9c0.5,1.3,1.2,2.6,2.1,3.7L16.4,40.9z M20,46.5c1.5,1.5,3.2,2.7,5.1,3.6L20,46.5
		L20,46.5z M39.2,50.1c1.9-0.9,3.7-2.1,5.1-3.6L39.2,50.1z M45.9,44.6c0.8-1.1,1.5-2.4,2.1-3.7L45.9,44.6z M48.6,39.1
		c0.3-1.2,0.5-2.4,0.6-3.7L48.6,39.1z M48.9,35.4c-0.1,1.3-0.3,2.5-0.6,3.7H16c-0.1-0.2-0.1-0.4-0.2-0.6c0.1-1.1,0.2-2.1,0.5-3.1
		H48.9z M47.7,40.9c-0.5,1.3-1.2,2.6-2.1,3.7H18.7c-0.8-1.1-1.5-2.4-2.1-3.7H47.7z M44.1,46.5c-1.5,1.5-3.3,2.8-5.3,3.6H25.7
		c-2-0.8-3.8-2.1-5.3-3.6H44.1L44.1,46.5z M38.6,19.1c1.9,0.8,3.7,2,5.2,3.4H25.2c3.4-2.3,7.5-3.5,11.6-3.5C37.4,19,38,19,38.6,19.1
		L38.6,19.1z M45.5,24.3c0.9,1.1,1.6,2.4,2.2,3.7H19.5c0.9-1.3,2-2.6,3.3-3.7H45.5L45.5,24.3z M48.3,29.9c0.3,1.2,0.6,2.4,0.6,3.7
		H16.8c0.4-1.3,0.9-2.5,1.6-3.7H48.3z"/>
	<path class="st1" d="M48.9,33.6c-0.1-1.3-0.3-2.5-0.6-3.7L48.9,33.6z M47.6,28c-0.6-1.3-1.3-2.6-2.2-3.7L47.6,28z M43.8,22.5
		c-1.5-1.5-3.3-2.6-5.2-3.4L43.8,22.5z M15.9,38.5c0,0.2,0.1,0.4,0.2,0.6L15.9,38.5z M16.6,40.9c0.5,1.3,1.2,2.6,2.1,3.7L16.6,40.9z
		 M20.3,46.5c1.5,1.5,3.3,2.8,5.3,3.6L20.3,46.5z M38.7,50.1c2-0.8,3.8-2.1,5.3-3.6L38.7,50.1z M45.7,44.6c0.8-1.1,1.5-2.4,2.1-3.7
		L45.7,44.6z M48.4,39.1c0.3-1.2,0.5-2.4,0.6-3.7L48.4,39.1z M48.8,35.4c-0.1,1.3-0.3,2.5-0.6,3.7H16.2c-0.1-0.4-0.2-0.8-0.3-1.2
		c0.1-0.9,0.2-1.7,0.4-2.5H48.8z M47.5,40.9c-0.5,1.3-1.3,2.6-2.1,3.7H19c-0.9-1.1-1.6-2.4-2.1-3.7H47.5z M43.8,46.5
		c-1.6,1.6-3.5,2.8-5.6,3.6H26.2c-2.1-0.8-4-2-5.6-3.6H43.8z M38,19c2.1,0.8,4,2,5.6,3.5H25.2C28.9,20,33.4,18.8,38,19L38,19z
		 M45.2,24.3c0.9,1.1,1.6,2.4,2.2,3.7H19.5c0.9-1.3,2-2.6,3.3-3.7H45.2z M48.1,29.9c0.4,1.2,0.6,2.5,0.7,3.7H16.8
		c0.4-1.3,0.9-2.5,1.6-3.7H48.1L48.1,29.9z"/>
	<path class="st1" d="M48.7,33.6c-0.1-1.3-0.3-2.5-0.7-3.7L48.7,33.6z M47.4,28c-0.6-1.3-1.3-2.6-2.2-3.7L47.4,28z M43.5,22.5
		C41.9,21,40,19.8,38,19L43.5,22.5L43.5,22.5z M15.9,37.9c0.1,0.4,0.2,0.8,0.3,1.2L15.9,37.9z M16.8,40.9c0.5,1.3,1.3,2.6,2.1,3.7
		L16.8,40.9z M20.6,46.5c1.6,1.6,3.5,2.8,5.6,3.6L20.6,46.5z M38.2,50.1c2.1-0.8,4-2,5.6-3.6L38.2,50.1z M45.4,44.6
		c0.9-1.1,1.6-2.4,2.1-3.7L45.4,44.6z M48.2,39.1c0.3-1.2,0.5-2.4,0.6-3.7L48.2,39.1z M48.6,35.4c-0.1,1.3-0.3,2.5-0.6,3.7H16.4
		c-0.2-0.6-0.3-1.2-0.4-1.9c0.1-0.6,0.2-1.2,0.3-1.9L48.6,35.4L48.6,35.4z M47.3,40.9c-0.6,1.3-1.3,2.6-2.1,3.7h-26
		c-0.9-1.1-1.6-2.4-2.1-3.7H47.3L47.3,40.9z M43.5,46.5c-1.7,1.6-3.7,2.8-5.9,3.6h-11c-2.2-0.8-4.2-2-5.9-3.6H43.5L43.5,46.5z
		 M37.3,19c2.2,0.7,4.2,1.9,6,3.5H25.2C28.7,20.1,33,18.9,37.3,19L37.3,19z M45,24.3c0.9,1.1,1.7,2.4,2.2,3.7H19.5
		c0.9-1.3,2-2.6,3.3-3.7H45z M47.9,29.9c0.4,1.2,0.6,2.5,0.7,3.7H16.8c0.4-1.3,0.9-2.5,1.6-3.7H47.9z"/>
	<path class="st1" d="M48.6,33.6c-0.1-1.3-0.3-2.5-0.7-3.7L48.6,33.6z M47.2,28c-0.6-1.3-1.3-2.6-2.2-3.7L47.2,28z M43.3,22.5
		c-1.7-1.6-3.7-2.8-6-3.5L43.3,22.5L43.3,22.5z M16,37.3c0.1,0.6,0.2,1.3,0.4,1.9L16,37.3z M17,40.9c0.6,1.3,1.3,2.6,2.1,3.7
		L17,40.9z M20.8,46.5c1.7,1.6,3.7,2.8,5.9,3.6L20.8,46.5z M37.7,50.1c2.2-0.8,4.2-2,5.9-3.6L37.7,50.1z M45.2,44.6
		c0.9-1.1,1.6-2.4,2.1-3.7L45.2,44.6z M48,39.1c0.3-1.2,0.5-2.4,0.6-3.7L48,39.1z M48.4,35.4c-0.1,1.3-0.3,2.5-0.6,3.7H16.6
		c-0.2-0.8-0.4-1.7-0.5-2.5c0.1-0.4,0.1-0.8,0.2-1.2H48.4L48.4,35.4z M47.1,40.9c-0.6,1.3-1.3,2.6-2.2,3.7H19.4
		c-0.9-1.1-1.6-2.4-2.2-3.7H47.1L47.1,40.9z M43.3,46.5c-1.8,1.6-3.9,2.9-6.2,3.6h-9.8c-2.3-0.7-4.4-2-6.2-3.6H43.3L43.3,46.5z
		 M36.6,19c2.4,0.7,4.5,1.9,6.3,3.5H25.2C28.6,20.2,32.6,19,36.6,19L36.6,19z M44.7,24.3c0.9,1.1,1.7,2.4,2.3,3.7H19.5
		c0.9-1.3,2-2.6,3.3-3.7H44.7L44.7,24.3z M47.7,29.9c0.4,1.2,0.6,2.4,0.7,3.7H16.8c0.4-1.3,0.9-2.5,1.6-3.7H47.7L47.7,29.9z"/>
	<path class="st1" d="M48.4,33.6c-0.1-1.3-0.3-2.5-0.7-3.7L48.4,33.6z M47,28c-0.6-1.3-1.4-2.6-2.3-3.7L47,28z M43,22.5
		c-1.8-1.6-4-2.8-6.3-3.5L43,22.5z M16.1,36.6c0.1,0.9,0.3,1.7,0.5,2.5L16.1,36.6z M17.3,40.9c0.6,1.3,1.3,2.6,2.2,3.7L17.3,40.9z
		 M21.1,46.5c1.8,1.6,3.9,2.9,6.2,3.6L21.1,46.5z M37.1,50.1c2.3-0.7,4.4-2,6.2-3.6L37.1,50.1L37.1,50.1z M44.9,44.6
		c0.9-1.1,1.6-2.4,2.2-3.7L44.9,44.6z M47.8,39.1c0.3-1.2,0.6-2.5,0.6-3.7L47.8,39.1z M48.2,35.4c-0.1,1.3-0.3,2.5-0.6,3.7H16.8
		c-0.3-1-0.5-2.1-0.6-3.2c0-0.2,0.1-0.3,0.1-0.5L48.2,35.4L48.2,35.4L48.2,35.4z M46.9,40.9c-0.6,1.3-1.3,2.6-2.2,3.7h-25
		c-0.9-1.1-1.6-2.4-2.2-3.7H46.9z M43,46.5c-1.9,1.7-4.1,2.9-6.6,3.6H28c-2.4-0.7-4.7-1.9-6.6-3.6H43z M36,19
		c2.5,0.6,4.8,1.8,6.8,3.5H25.2C28.4,20.4,32.1,19.2,36,19L36,19z M44.5,24.3c0.9,1.1,1.7,2.4,2.3,3.7H19.5c0.9-1.3,2-2.6,3.3-3.7
		H44.5L44.5,24.3z M47.5,29.9c0.4,1.2,0.6,2.5,0.7,3.7H16.8c0.4-1.3,0.9-2.5,1.6-3.7H47.5z"/>
	<path class="st1" d="M48.2,33.6c-0.1-1.3-0.3-2.5-0.7-3.7L48.2,33.6z M46.8,28c-0.6-1.3-1.4-2.6-2.3-3.7L46.8,28z M42.7,22.5
		c-1.9-1.7-4.3-2.9-6.8-3.5L42.7,22.5L42.7,22.5z M16.2,35.9c0.1,1.1,0.3,2.2,0.6,3.2L16.2,35.9L16.2,35.9z M17.5,40.9
		c0.6,1.3,1.3,2.6,2.2,3.7L17.5,40.9z M21.4,46.5c1.9,1.7,4.1,2.9,6.6,3.6L21.4,46.5z M36.4,50.1c2.4-0.7,4.7-1.9,6.6-3.6L36.4,50.1
		z M44.7,44.6c0.9-1.1,1.6-2.4,2.2-3.7L44.7,44.6z M47.6,39.1c0.4-1.2,0.6-2.5,0.6-3.7L47.6,39.1z M48,35.4
		c-0.1,1.3-0.3,2.5-0.6,3.7H17c-0.4-1.2-0.6-2.5-0.6-3.7H48L48,35.4z M46.7,40.9c-0.6,1.3-1.3,2.6-2.3,3.7H19.9
		c-0.9-1.1-1.7-2.4-2.3-3.7H46.7L46.7,40.9z M42.7,46.5c-2,1.8-4.4,3-7.1,3.6h-6.9c-2.6-0.6-5.1-1.8-7.1-3.6H42.7z M35.2,19.1
		c2.6,0.5,5.1,1.7,7.2,3.5H25.2C28.2,20.5,31.6,19.3,35.2,19.1L35.2,19.1z M44.2,24.3c1,1.1,1.7,2.4,2.4,3.7H19.5
		c0.9-1.3,2-2.6,3.3-3.7H44.2z M47.3,29.9c0.4,1.2,0.6,2.5,0.7,3.7H16.8c0.4-1.3,0.9-2.5,1.6-3.7H47.3z"/>
	<path class="st1" d="M48,33.6c-0.1-1.3-0.3-2.5-0.7-3.7L48,33.6z M46.6,28c-0.6-1.3-1.4-2.6-2.4-3.7L46.6,28z M42.4,22.5
		c-2.1-1.7-4.5-2.9-7.2-3.5L42.4,22.5z M16.4,35.4c0.1,1.3,0.3,2.5,0.6,3.7L16.4,35.4z M17.7,40.9c0.6,1.3,1.3,2.6,2.3,3.7
		L17.7,40.9z M21.7,46.5c2,1.8,4.4,3,7.1,3.6L21.7,46.5z M35.6,50.1c2.6-0.6,5.1-1.8,7.1-3.6L35.6,50.1z M44.5,44.6
		c0.9-1.1,1.7-2.4,2.3-3.7L44.5,44.6z M47.4,39.1c0.4-1.2,0.6-2.4,0.6-3.7L47.4,39.1z M47.8,35.4c-0.1,1.3-0.3,2.5-0.6,3.7h-30
		c-0.4-1.2-0.6-2.5-0.6-3.7H47.8z M46.5,40.9c-0.6,1.3-1.4,2.6-2.3,3.7h-24c-0.9-1.1-1.7-2.4-2.3-3.7H46.5L46.5,40.9z M42.4,46.5
		c-2.2,1.9-4.9,3.2-7.8,3.6h-4.9c-2.9-0.5-5.6-1.7-7.8-3.6H42.4L42.4,46.5z M34.5,19.1c2.8,0.4,5.4,1.6,7.6,3.4h-17
		C28,20.6,31.2,19.5,34.5,19.1L34.5,19.1z M44,24.3c1,1.1,1.8,2.4,2.4,3.7H19.5c0.9-1.3,2-2.6,3.3-3.7H44z M47.1,29.9
		c0.4,1.2,0.6,2.4,0.7,3.7h-31c0.4-1.3,0.9-2.5,1.6-3.7H47.1L47.1,29.9z"/>
	<path class="st1" d="M47.8,33.6c-0.1-1.3-0.3-2.5-0.7-3.7L47.8,33.6z M46.4,28c-0.6-1.3-1.4-2.6-2.4-3.7L46.4,28z M42.1,22.5
		c-2.2-1.8-4.8-3-7.6-3.4L42.1,22.5z M16.6,35.4c0.1,1.3,0.3,2.5,0.6,3.7L16.6,35.4z M17.9,40.9c0.6,1.3,1.4,2.6,2.3,3.7L17.9,40.9
		L17.9,40.9z M22,46.5c2.2,1.9,4.9,3.2,7.8,3.6L22,46.5z M34.6,50.1c2.9-0.5,5.6-1.7,7.8-3.6L34.6,50.1z M44.2,44.6
		c0.9-1.1,1.7-2.4,2.3-3.7L44.2,44.6z M47.2,39.1c0.4-1.2,0.6-2.4,0.6-3.7L47.2,39.1z M47.6,35.4c-0.1,1.3-0.3,2.5-0.6,3.7H17.4
		c-0.4-1.2-0.6-2.5-0.6-3.7H47.6L47.6,35.4z M46.3,40.9c-0.6,1.3-1.4,2.6-2.3,3.7H20.4c-0.9-1.1-1.7-2.4-2.3-3.7H46.3L46.3,40.9z
		 M42.1,46.5c-2.7,2.3-6.1,3.6-9.9,3.6s-7.2-1.4-9.9-3.6H42.1z M33.8,19.2c3,0.3,5.8,1.4,8.1,3.3H25.2
		C27.7,20.8,30.7,19.7,33.8,19.2L33.8,19.2z M43.8,24.3c1,1.1,1.8,2.4,2.4,3.7H19.5c0.9-1.3,2-2.6,3.3-3.7H43.8L43.8,24.3z
		 M46.9,29.9c0.4,1.2,0.6,2.5,0.7,3.7H16.8c0.4-1.3,0.9-2.5,1.6-3.7H46.9L46.9,29.9z"/>
	<path class="st1" d="M47.6,33.6c-0.1-1.3-0.3-2.5-0.7-3.7L47.6,33.6z M46.2,28c-0.6-1.3-1.4-2.6-2.4-3.7L46.2,28z M41.8,22.5
		c-2.3-1.9-5.1-3-8.1-3.3L41.8,22.5L41.8,22.5z M16.8,35.4c0.1,1.3,0.3,2.5,0.6,3.7L16.8,35.4z M18.1,40.9c0.6,1.3,1.4,2.6,2.3,3.7
		L18.1,40.9z M22.3,46.5c2.7,2.3,6.1,3.6,9.9,3.6c3.8,0,7.2-1.4,9.9-3.6H22.3L22.3,46.5z M44,44.6c0.9-1.1,1.7-2.4,2.3-3.7L44,44.6
		L44,44.6z M47,39.1c0.4-1.2,0.6-2.5,0.6-3.7L47,39.1z M47.4,35.4c-0.1,1.3-0.3,2.5-0.7,3.7H17.6c-0.4-1.2-0.6-2.5-0.7-3.7H47.4z
		 M46.1,40.9c-0.6,1.3-1.4,2.6-2.4,3.7H20.7c-1-1.1-1.8-2.4-2.4-3.7L46.1,40.9L46.1,40.9z M41.8,46.5c-2.7,2.2-6.1,3.4-9.6,3.4
		c-3.7,0-7-1.3-9.6-3.4H41.8z M17,33.6c0-0.2,0-0.4,0.1-0.6c0.4-1.1,0.8-2.1,1.4-3.1h28.3c0.4,1.2,0.6,2.5,0.7,3.7H17L17,33.6z
		 M33,19.4c3.1,0.2,6.1,1.3,8.6,3.2H25.2C27.5,20.9,30.2,19.9,33,19.4z M43.5,24.3c1,1.1,1.8,2.3,2.5,3.7H19.5
		c0.9-1.3,2-2.6,3.3-3.7H43.5z"/>
	<path class="st1" d="M47.4,33.6c-0.1-1.3-0.3-2.5-0.7-3.7L47.4,33.6z M46,28c-0.6-1.3-1.5-2.6-2.5-3.7L46,28z M41.5,22.5
		c-2.5-1.9-5.4-3-8.6-3.2L41.5,22.5z M17,33c0,0.2,0,0.4-0.1,0.6L17,33z M16.9,35.4c0.1,1.3,0.3,2.5,0.7,3.7L16.9,35.4z M18.3,40.9
		c0.6,1.3,1.4,2.6,2.4,3.7L18.3,40.9L18.3,40.9z M22.6,46.5c2.7,2.2,6.1,3.4,9.6,3.4c3.7,0,7-1.3,9.6-3.4H22.6L22.6,46.5z
		 M43.7,44.6c1-1.1,1.8-2.4,2.4-3.7L43.7,44.6z M46.8,39.1c0.4-1.2,0.6-2.5,0.7-3.7L46.8,39.1z M47.2,35.4c-0.1,1.3-0.3,2.5-0.7,3.7
		H17.8c-0.4-1.2-0.6-2.5-0.7-3.7H47.2L47.2,35.4z M45.9,40.9c-0.6,1.3-1.4,2.6-2.4,3.7H20.9c-1-1.1-1.8-2.4-2.4-3.7H45.9L45.9,40.9z
		 M41.5,46.5c-2.7,2.1-5.9,3.2-9.3,3.2c-3.4,0-6.7-1.1-9.3-3.2H41.5z M17.1,33.6c0-0.5,0.1-0.9,0.2-1.4c0.3-0.8,0.7-1.6,1.1-2.3
		h28.1c0.4,1.2,0.6,2.5,0.7,3.7L17.1,33.6L17.1,33.6L17.1,33.6z M32.1,19.5L32.1,19.5c3.4,0,6.6,1.1,9.1,3H25.2
		C27.3,21.1,29.6,20.1,32.1,19.5z M43.2,24.3c1,1.1,1.9,2.3,2.5,3.7H19.5c0.9-1.3,2-2.6,3.3-3.7L43.2,24.3L43.2,24.3z"/>
	<path class="st1" d="M47.2,33.6c-0.1-1.3-0.3-2.5-0.7-3.7L47.2,33.6z M45.8,28c-0.7-1.4-1.5-2.6-2.5-3.7L45.8,28z M41.2,22.5
		c-2.6-1.9-5.8-3-9-3l-0.1,0L41.2,22.5z M17.3,32.2c-0.1,0.5-0.1,0.9-0.2,1.4L17.3,32.2z M17.1,35.4c0.1,1.3,0.3,2.5,0.7,3.7
		L17.1,35.4z M18.5,40.9c0.6,1.3,1.4,2.6,2.4,3.7L18.5,40.9L18.5,40.9z M22.9,46.5c2.7,2.1,5.9,3.2,9.3,3.2c3.4,0,6.7-1.1,9.3-3.2
		H22.9z M43.5,44.6c1-1.1,1.8-2.4,2.4-3.7L43.5,44.6L43.5,44.6z M46.6,39.1c0.4-1.2,0.6-2.5,0.7-3.7L46.6,39.1z M47.1,35.4
		c-0.1,1.3-0.3,2.5-0.7,3.7H18c-0.4-1.2-0.6-2.5-0.7-3.7H47.1L47.1,35.4z M45.7,40.9c-0.6,1.3-1.5,2.6-2.5,3.7h-22
		c-1-1.1-1.8-2.3-2.5-3.7L45.7,40.9L45.7,40.9z M41.2,46.5c-2.5,1.9-5.6,3-9,3s-6.5-1.1-9-3H41.2z M17.3,33.6
		c0.1-0.8,0.2-1.5,0.3-2.2c0.2-0.5,0.5-1,0.7-1.5h27.9c0.4,1.2,0.7,2.5,0.7,3.7L17.3,33.6L17.3,33.6L17.3,33.6z M31.2,19.7
		c3.4-0.2,6.8,0.8,9.6,2.8H25.2C27,21.3,29.1,20.3,31.2,19.7L31.2,19.7z M43,24.3c1,1.1,1.9,2.3,2.6,3.7h-26c0.9-1.3,2-2.6,3.3-3.7
		L43,24.3L43,24.3z"/>
	<path class="st1" d="M47,33.6c-0.1-1.3-0.3-2.5-0.7-3.7L47,33.6z M45.6,28c-0.7-1.4-1.5-2.6-2.6-3.7L45.6,28z M40.9,22.5
		c-2.8-2-6.2-3-9.6-2.8L40.9,22.5z M17.7,31.4c-0.2,0.7-0.3,1.5-0.3,2.2L17.7,31.4z M17.3,35.4c0.1,1.3,0.3,2.5,0.7,3.7L17.3,35.4z
		 M18.7,40.9c0.6,1.3,1.5,2.6,2.5,3.7L18.7,40.9L18.7,40.9z M23.2,46.5c2.5,1.9,5.6,3,9,3c3.4,0,6.5-1.1,9-3H23.2z M43.2,44.6
		c1-1.1,1.8-2.3,2.5-3.7L43.2,44.6L43.2,44.6z M46.4,39.1c0.4-1.2,0.6-2.5,0.7-3.7L46.4,39.1z M46.9,35.4c-0.1,1.3-0.3,2.5-0.7,3.7
		h-28c-0.4-1.2-0.6-2.5-0.7-3.7H46.9z M45.5,40.9c-0.6,1.4-1.5,2.6-2.5,3.7H21.4c-1-1.1-1.9-2.3-2.5-3.7L45.5,40.9L45.5,40.9z
		 M40.9,46.5c-2.5,1.9-5.6,2.9-8.7,2.9c-3.1,0-6.2-1-8.7-2.9H40.9L40.9,46.5z M17.5,33.6c0.1-1.1,0.3-2.1,0.6-3.1
		c0.1-0.2,0.2-0.4,0.3-0.6h27.7c0.4,1.2,0.7,2.5,0.7,3.7H17.5z M30.3,20c0.6-0.1,1.2-0.1,1.9-0.1c3.1,0,6,1,8.4,2.6H25.2
		C26.7,21.4,28.5,20.6,30.3,20L30.3,20z M42.7,24.3c1.1,1.1,1.9,2.3,2.6,3.7H19.5c0.9-1.3,2-2.6,3.3-3.7H42.7z"/>
	<path class="st1" d="M46.9,33.6c-0.1-1.3-0.3-2.5-0.7-3.7L46.9,33.6z M45.3,28c-0.7-1.4-1.6-2.6-2.6-3.7L45.3,28z M40.5,22.5
		c-2.5-1.7-5.4-2.6-8.4-2.6c-0.6,0-1.3,0-1.9,0.1L40.5,22.5z M18.1,30.5c-0.3,1-0.5,2.1-0.6,3.1L18.1,30.5z M17.5,35.4
		c0.1,1.3,0.3,2.5,0.7,3.7L17.5,35.4z M18.9,40.9c0.6,1.4,1.5,2.6,2.5,3.7L18.9,40.9z M23.5,46.5c2.5,1.9,5.6,2.9,8.7,2.9
		c3.1,0,6.2-1,8.7-2.9H23.5L23.5,46.5z M43,44.6c1-1.1,1.9-2.3,2.5-3.7L43,44.6L43,44.6z M46.2,39.1c0.4-1.2,0.6-2.5,0.7-3.7
		L46.2,39.1z M46.7,35.4c-0.1,1.3-0.3,2.5-0.7,3.7H18.4c-0.4-1.2-0.6-2.5-0.7-3.7H46.7z M45.3,40.9c-0.7,1.4-1.5,2.6-2.6,3.7h-21
		c-1-1.1-1.9-2.3-2.6-3.7L45.3,40.9L45.3,40.9z M40.6,46.5c-2.4,1.7-5.4,2.7-8.4,2.7c-3,0-5.9-0.9-8.4-2.7H40.6L40.6,46.5z
		 M17.7,33.6c0.1-1.3,0.3-2.5,0.8-3.7h27.4c0.4,1.2,0.7,2.5,0.8,3.7H17.7L17.7,33.6z M29.1,20.4c1-0.2,2-0.3,3-0.3
		c2.8,0,5.6,0.8,8,2.4h-15C26.4,21.7,27.7,21,29.1,20.4L29.1,20.4z M42.4,24.3c1.1,1.1,2,2.3,2.7,3.7H19.5c0.9-1.3,2-2.6,3.3-3.7
		L42.4,24.3L42.4,24.3z"/>
	<path class="st1" d="M46.7,33.6c-0.1-1.3-0.3-2.5-0.8-3.7L46.7,33.6z M45.1,28c-0.7-1.4-1.6-2.6-2.7-3.7L45.1,28z M40.2,22.5
		c-2.4-1.6-5.2-2.4-8-2.4c-1,0-2.1,0.1-3,0.3L40.2,22.5L40.2,22.5z M18.5,29.9c-0.4,1.2-0.7,2.5-0.8,3.7L18.5,29.9z M17.7,35.4
		c0.1,1.3,0.3,2.5,0.7,3.7L17.7,35.4z M19.1,40.9c0.7,1.4,1.5,2.6,2.6,3.7L19.1,40.9L19.1,40.9z M23.8,46.5c2.4,1.7,5.4,2.7,8.4,2.7
		c3.1,0,6-1,8.4-2.7H23.8z M42.7,44.6c1-1.1,1.9-2.3,2.6-3.7L42.7,44.6z M46,39.1c0.4-1.2,0.6-2.5,0.7-3.7L46,39.1z M46.5,35.4
		c-0.1,1.3-0.3,2.5-0.7,3.7H18.6c-0.4-1.2-0.6-2.5-0.7-3.7H46.5L46.5,35.4z M45,40.9c-0.7,1.4-1.6,2.6-2.6,3.7H22
		c-1.1-1.1-1.9-2.3-2.6-3.7H45z M40.2,46.5c-2.4,1.6-5.2,2.5-8.1,2.5c-2.9,0-5.7-0.9-8.1-2.5H40.2z M17.9,33.6
		c0.1-1.3,0.3-2.5,0.8-3.7h27c0.4,1.2,0.7,2.5,0.8,3.7H17.9z M28,20.9c1.4-0.4,2.8-0.6,4.2-0.6c2.8,0,5.4,0.8,7.7,2.2H25.2
		C26,21.9,27,21.4,28,20.9z M42.2,24.3c1.1,1.1,2,2.3,2.7,3.7H19.5c0.9-1.3,2-2.6,3.3-3.7L42.2,24.3L42.2,24.3z"/>
	<path class="st1" d="M46.5,33.6c-0.1-1.3-0.3-2.5-0.8-3.7L46.5,33.6z M44.9,28c-0.7-1.4-1.6-2.6-2.7-3.7L44.9,28z M39.8,22.5
		c-2.3-1.4-4.9-2.2-7.7-2.2c-1.5,0-2.9,0.2-4.2,0.6L39.8,22.5z M18.7,29.9c-0.4,1.2-0.7,2.5-0.8,3.7L18.7,29.9z M17.9,35.4
		c0.1,1.3,0.3,2.5,0.7,3.7L17.9,35.4z M19.3,40.9c0.7,1.4,1.6,2.6,2.6,3.7L19.3,40.9L19.3,40.9z M24.1,46.5c2.4,1.6,5.2,2.5,8.1,2.5
		c2.9,0,5.7-0.9,8.1-2.5H24.1z M42.4,44.6c1.1-1.1,1.9-2.3,2.6-3.7L42.4,44.6z M45.8,39.1c0.4-1.2,0.6-2.5,0.7-3.7L45.8,39.1z
		 M46.3,35.4c-0.1,1.3-0.3,2.5-0.7,3.7H18.8c-0.4-1.2-0.6-2.5-0.7-3.7H46.3z M44.8,40.9c-0.7,1.4-1.6,2.6-2.7,3.7H22.2
		c-1.1-1.1-2-2.3-2.7-3.7H44.8z M39.9,46.5c-2.3,1.5-5,2.3-7.7,2.3c-2.7,0-5.4-0.8-7.7-2.3H39.9z M18.1,33.6
		c0.1-1.3,0.4-2.5,0.8-3.7h26.6c0.4,1.2,0.7,2.5,0.8,3.7H18.1L18.1,33.6z M19.7,28c0.1-0.3,0.3-0.6,0.5-0.8c0.8-1,1.7-2,2.6-2.9
		h19.1c1.1,1.1,2.1,2.3,2.8,3.7H19.7L19.7,28z M26.5,21.7c1.8-0.8,3.7-1.2,5.7-1.2c2.6,0,5.1,0.7,7.3,2H25.2
		C25.6,22.2,26.1,21.9,26.5,21.7L26.5,21.7z"/>
	<path class="st1" d="M46.3,33.6c-0.1-1.3-0.4-2.5-0.8-3.7L46.3,33.6z M44.7,28c-0.7-1.4-1.7-2.6-2.8-3.7L44.7,28z M39.5,22.5
		c-2.2-1.3-4.7-2-7.3-2c-2,0-3.9,0.4-5.7,1.2L39.5,22.5z M20.2,27.2c-0.2,0.3-0.3,0.5-0.5,0.8L20.2,27.2z M18.9,29.9
		c-0.4,1.2-0.7,2.5-0.8,3.7L18.9,29.9z M18.1,35.4c0.1,1.3,0.3,2.5,0.7,3.7L18.1,35.4z M19.5,40.9c0.7,1.4,1.6,2.6,2.7,3.7
		L19.5,40.9z M24.5,46.5c2.3,1.5,5,2.3,7.7,2.3c2.8,0,5.5-0.8,7.7-2.3H24.5L24.5,46.5z M42.2,44.6c1.1-1.1,2-2.3,2.7-3.7L42.2,44.6
		L42.2,44.6z M45.6,39.1c0.4-1.2,0.6-2.5,0.7-3.7L45.6,39.1z M46.1,35.4c-0.1,1.3-0.3,2.5-0.7,3.7H19c-0.4-1.2-0.7-2.5-0.7-3.7H46.1
		L46.1,35.4z M44.6,40.9c-0.7,1.4-1.6,2.6-2.7,3.7H22.5c-1.1-1.1-2-2.3-2.7-3.7L44.6,40.9L44.6,40.9z M39.5,46.5
		c-2.2,1.4-4.7,2.1-7.3,2.1c-2.6,0-5.1-0.7-7.3-2.1H39.5z M18.3,33.6c0.1-1.3,0.4-2.5,0.8-3.7h26.2c0.4,1.2,0.7,2.5,0.8,3.7H18.3
		L18.3,33.6z M19.9,28c0.5-1,1.2-1.9,2-2.8c0.3-0.3,0.6-0.6,0.9-0.9h18.8c1.2,1.1,2.1,2.3,2.9,3.7L19.9,28L19.9,28z M25.3,22.5
		c2.1-1.2,4.5-1.8,6.9-1.8c2.5,0,4.9,0.7,6.9,1.8H25.3L25.3,22.5z"/>
	<path class="st1" d="M46.1,33.6c-0.1-1.3-0.4-2.5-0.8-3.7L46.1,33.6z M44.5,28c-0.7-1.4-1.7-2.6-2.9-3.7L44.5,28z M39.1,22.5
		c-2.1-1.2-4.5-1.8-6.9-1.8c-2.4,0-4.8,0.6-6.9,1.8H39.1z M21.9,25.3c-0.8,0.8-1.4,1.8-2,2.8L21.9,25.3z M19.1,29.9
		c-0.4,1.2-0.7,2.5-0.8,3.7L19.1,29.9z M18.3,35.4c0.1,1.3,0.3,2.5,0.7,3.7L18.3,35.4z M19.8,40.9c0.7,1.4,1.6,2.6,2.7,3.7
		L19.8,40.9L19.8,40.9z M24.9,46.5c2.2,1.4,4.7,2.1,7.3,2.1c2.7,0,5.2-0.8,7.3-2.1H24.9z M41.9,44.6c1.1-1.1,2-2.3,2.7-3.7
		L41.9,44.6z M45.4,39.1c0.4-1.2,0.7-2.5,0.7-3.7L45.4,39.1z M45.9,35.4c-0.1,1.3-0.3,2.5-0.7,3.7h-26c-0.4-1.2-0.7-2.5-0.7-3.7
		H45.9z M44.4,40.9c-0.7,1.4-1.7,2.6-2.8,3.7H22.8c-1.1-1.1-2.1-2.3-2.8-3.7H44.4z M39.2,46.5c-2.1,1.2-4.5,1.9-7,1.9
		c-2.4,0-4.9-0.6-7-1.9H39.2L39.2,46.5z M18.5,33.6c0.1-1.3,0.4-2.5,0.8-3.7h25.8c0.4,1.2,0.7,2.5,0.8,3.7H18.5L18.5,33.6z M20.1,28
		c0.8-1.4,1.8-2.6,2.9-3.7h18.3c1.2,1.1,2.2,2.3,2.9,3.7H20.1L20.1,28z M25.7,22.5c2-1.1,4.3-1.6,6.5-1.6c2.4,0,4.6,0.6,6.5,1.6
		H25.7L25.7,22.5z"/>
	<path class="st1" d="M45.9,33.6c-0.1-1.3-0.4-2.5-0.8-3.7L45.9,33.6z M44.3,28c-0.8-1.4-1.8-2.6-2.9-3.7L44.3,28z M38.7,22.5
		c-2-1.1-4.3-1.6-6.5-1.6c-2.4,0-4.6,0.6-6.5,1.6H38.7z M23,24.3c-1.2,1.1-2.2,2.3-2.9,3.7L23,24.3L23,24.3z M19.3,29.9
		c-0.4,1.2-0.7,2.5-0.8,3.7L19.3,29.9z M18.5,35.4c0.1,1.3,0.3,2.5,0.7,3.7L18.5,35.4z M20,40.9c0.7,1.4,1.7,2.6,2.8,3.7L20,40.9
		L20,40.9z M25.2,46.5c2.1,1.2,4.5,1.9,7,1.9c2.5,0,4.9-0.7,7-1.9H25.2z M41.6,44.6c1.1-1.1,2.1-2.3,2.8-3.7L41.6,44.6L41.6,44.6z
		 M45.2,39.1c0.4-1.2,0.7-2.5,0.7-3.7L45.2,39.1z M45.7,35.4c-0.1,1.3-0.3,2.5-0.7,3.7H19.4c-0.4-1.2-0.7-2.5-0.7-3.7H45.7z
		 M44.2,40.9c-0.7,1.4-1.7,2.6-2.9,3.7H23.1c-1.2-1.1-2.1-2.3-2.9-3.7L44.2,40.9L44.2,40.9z M38.8,46.5c-2,1.1-4.3,1.7-6.6,1.7
		c-2.3,0-4.6-0.6-6.6-1.7H38.8z M18.7,33.6c0.1-1.3,0.4-2.5,0.8-3.7h25.4c0.4,1.2,0.7,2.4,0.8,3.7H18.7z M20.3,28
		c0.8-1.4,1.8-2.7,3-3.7h17.7c1.2,1,2.2,2.3,3,3.7L20.3,28L20.3,28z M26.1,22.5c1.8-0.9,3.9-1.5,6.1-1.5c2.2,0,4.3,0.5,6.1,1.5H26.1
		z"/>
	<path class="st1" d="M45.7,33.6c-0.1-1.3-0.4-2.5-0.8-3.7L45.7,33.6z M44.1,28c-0.8-1.4-1.8-2.7-3-3.7L44.1,28z M38.3,22.5
		c-1.8-0.9-3.9-1.5-6.1-1.5s-4.3,0.5-6.1,1.5H38.3z M23.3,24.3c-1.2,1-2.2,2.3-3,3.7L23.3,24.3L23.3,24.3z M19.5,29.9
		c-0.4,1.2-0.7,2.4-0.8,3.7L19.5,29.9z M18.6,35.4c0.1,1.3,0.3,2.5,0.7,3.7L18.6,35.4L18.6,35.4z M20.2,40.9
		c0.7,1.4,1.7,2.6,2.9,3.7L20.2,40.9z M25.6,46.5c2,1.1,4.3,1.7,6.6,1.7c2.4,0,4.6-0.6,6.6-1.7H25.6L25.6,46.5z M41.3,44.6
		c1.2-1.1,2.1-2.3,2.9-3.7L41.3,44.6L41.3,44.6z M45,39.1c0.4-1.2,0.7-2.5,0.7-3.7L45,39.1z M45.5,35.4c-0.1,1.3-0.3,2.5-0.8,3.7
		H19.6c-0.4-1.2-0.7-2.5-0.8-3.7H45.5z M44,40.9c-0.8,1.4-1.7,2.6-2.9,3.7H23.3c-1.2-1-2.2-2.3-2.9-3.7L44,40.9L44,40.9z M38.4,46.5
		c-1.9,1-4,1.5-6.2,1.5c-2.2,0-4.3-0.5-6.2-1.5H38.4z M18.9,33.6c0.1-1.3,0.4-2.5,0.8-3.7h25c0.5,1.2,0.7,2.4,0.8,3.7H18.9z
		 M20.5,28c0.8-1.4,1.8-2.7,3.1-3.7h17.1c1.2,1,2.3,2.3,3.1,3.7L20.5,28L20.5,28z M26.5,22.5c1.7-0.8,3.7-1.3,5.7-1.3s4,0.5,5.7,1.3
		H26.5z"/>
	<path class="st1" d="M45.5,33.6c-0.1-1.3-0.4-2.5-0.8-3.7L45.5,33.6z M43.8,28c-0.8-1.4-1.8-2.7-3.1-3.7L43.8,28z M37.9,22.5
		c-1.7-0.8-3.7-1.3-5.7-1.3s-4,0.5-5.7,1.3H37.9L37.9,22.5z M23.6,24.3c-1.2,1-2.3,2.3-3.1,3.7L23.6,24.3L23.6,24.3z M19.7,29.9
		c-0.5,1.2-0.7,2.4-0.8,3.7L19.7,29.9z M18.8,35.4c0.1,1.3,0.3,2.5,0.8,3.7L18.8,35.4z M20.4,40.9c0.8,1.4,1.7,2.6,2.9,3.7
		L20.4,40.9L20.4,40.9z M26,46.5c1.9,1,4,1.5,6.2,1.5c2.2,0,4.3-0.5,6.2-1.5H26L26,46.5z M41,44.6c1.2-1,2.2-2.3,2.9-3.7L41,44.6
		L41,44.6z M44.8,39.1c0.4-1.2,0.7-2.5,0.8-3.7L44.8,39.1z M45.4,35.4c-0.1,1.3-0.3,2.5-0.8,3.7H19.8c-0.4-1.2-0.7-2.5-0.8-3.7H45.4
		L45.4,35.4z M43.8,40.9c-0.8,1.4-1.8,2.7-3,3.7H23.6c-1.2-1-2.2-2.3-3-3.7L43.8,40.9L43.8,40.9z M38,46.5c-1.7,0.8-3.7,1.3-5.8,1.3
		s-4-0.5-5.8-1.3H38z M19,33.6c0.1-1.3,0.4-2.5,0.8-3.7h24.6c0.5,1.2,0.7,2.4,0.8,3.7H19L19,33.6z M20.8,28c0.8-1.4,1.9-2.7,3.2-3.7
		h16.5c1.3,1,2.3,2.3,3.2,3.7L20.8,28L20.8,28z M27,22.5c1.7-0.7,3.4-1.1,5.2-1.1c1.9,0,3.6,0.4,5.2,1.1H27L27,22.5z"/>
	<path class="st1" d="M45.3,33.6c-0.1-1.3-0.4-2.5-0.8-3.7L45.3,33.6z M43.6,28c-0.8-1.4-1.9-2.7-3.2-3.7L43.6,28z M37.4,22.5
		c-1.7-0.7-3.4-1.1-5.2-1.1c-1.8,0-3.6,0.4-5.2,1.1H37.4z M23.9,24.3c-1.3,1-2.3,2.3-3.2,3.7L23.9,24.3L23.9,24.3z M19.9,29.9
		c-0.5,1.2-0.7,2.4-0.8,3.7L19.9,29.9z M19,35.4c0.1,1.3,0.3,2.5,0.8,3.7L19,35.4L19,35.4z M20.6,40.9c0.8,1.4,1.8,2.7,3,3.7
		L20.6,40.9z M26.4,46.5c1.7,0.8,3.7,1.3,5.8,1.3c2.1,0,4-0.5,5.8-1.3H26.4L26.4,46.5z M40.8,44.6c1.2-1,2.2-2.3,3-3.7L40.8,44.6
		L40.8,44.6z M44.6,39.1c0.4-1.2,0.7-2.5,0.8-3.7L44.6,39.1z M45.2,35.4c-0.1,1.3-0.3,2.5-0.8,3.7H20c-0.4-1.2-0.7-2.4-0.8-3.7H45.2
		z M43.6,40.9c-0.8,1.4-1.8,2.7-3.1,3.7H23.9c-1.2-1-2.3-2.3-3.1-3.7L43.6,40.9L43.6,40.9z M37.5,46.5c-1.7,0.7-3.5,1.1-5.3,1.1
		c-1.9,0-3.7-0.4-5.3-1.1H37.5z M19.2,33.6c0.1-1.3,0.4-2.5,0.9-3.7h24.2c0.5,1.2,0.8,2.4,0.9,3.7H19.2L19.2,33.6z M21,28
		c0.8-1.4,1.9-2.7,3.2-3.7h15.9c1.3,1,2.4,2.3,3.2,3.7L21,28L21,28z M27.5,22.5c1.5-0.6,3.1-0.9,4.7-0.9c1.7,0,3.3,0.3,4.7,0.9H27.5
		L27.5,22.5z"/>
	<path class="st1" d="M45.2,33.6c-0.1-1.3-0.4-2.5-0.9-3.7L45.2,33.6z M43.4,28c-0.8-1.4-1.9-2.7-3.2-3.7L43.4,28z M36.9,22.5
		c-1.5-0.6-3.1-0.9-4.7-0.9c-1.7,0-3.3,0.3-4.7,0.9H36.9L36.9,22.5z M24.2,24.3c-1.3,1-2.4,2.3-3.2,3.7L24.2,24.3L24.2,24.3z
		 M20.1,29.9c-0.5,1.2-0.8,2.4-0.9,3.7L20.1,29.9z M19.2,35.4c0.1,1.3,0.3,2.5,0.8,3.7L19.2,35.4L19.2,35.4z M20.8,40.9
		c0.8,1.4,1.8,2.7,3.1,3.7L20.8,40.9z M26.9,46.5c1.7,0.7,3.5,1.1,5.3,1.1c1.9,0,3.7-0.4,5.3-1.1H26.9L26.9,46.5z M40.5,44.6
		c1.2-1,2.3-2.3,3.1-3.7L40.5,44.6L40.5,44.6z M44.4,39.1c0.4-1.2,0.7-2.4,0.8-3.7L44.4,39.1z M45,35.4c-0.1,1.3-0.3,2.5-0.8,3.7
		h-24c-0.5-1.2-0.7-2.4-0.8-3.7H45z M43.3,40.9c-0.8,1.4-1.9,2.7-3.2,3.7H24.2c-1.3-1-2.4-2.3-3.2-3.7L43.3,40.9L43.3,40.9z
		 M37,46.5c-1.5,0.6-3.1,0.9-4.8,0.9c-1.7,0-3.3-0.3-4.8-0.9H37z M19.4,33.6c0.1-1.3,0.4-2.5,0.9-3.7h23.8c0.5,1.2,0.8,2.4,0.9,3.7
		H19.4L19.4,33.6z M21.2,28c0.9-1.4,2-2.7,3.3-3.7h15.3c1.3,1,2.5,2.3,3.3,3.7L21.2,28L21.2,28z M28,22.5c1.3-0.5,2.7-0.7,4.2-0.7
		s2.9,0.2,4.2,0.7H28L28,22.5z"/>
	<path class="st1" d="M45,33.6c-0.1-1.3-0.4-2.5-0.9-3.7L45,33.6z M43.2,28c-0.9-1.4-2-2.7-3.3-3.7L43.2,28z M36.4,22.5
		c-1.3-0.5-2.7-0.7-4.2-0.7c-1.5,0-2.9,0.2-4.2,0.7H36.4z M24.5,24.3c-1.3,1-2.5,2.3-3.3,3.7L24.5,24.3L24.5,24.3z M20.3,29.9
		c-0.5,1.2-0.8,2.4-0.9,3.7L20.3,29.9z M19.4,35.4c0.1,1.3,0.3,2.5,0.8,3.7L19.4,35.4z M21,40.9c0.8,1.4,1.9,2.7,3.2,3.7L21,40.9z
		 M27.4,46.5c1.5,0.6,3.1,0.9,4.8,0.9c1.7,0,3.3-0.3,4.8-0.9H27.4z M40.2,44.6c1.3-1,2.4-2.3,3.2-3.7L40.2,44.6L40.2,44.6z
		 M44.2,39.1c0.5-1.2,0.7-2.4,0.8-3.7L44.2,39.1z M44.8,35.4c-0.1,1.3-0.4,2.5-0.8,3.7H20.4c-0.5-1.2-0.7-2.4-0.8-3.7H44.8z
		 M43.1,40.9c-0.8,1.4-1.9,2.7-3.3,3.7H24.5c-1.3-1-2.4-2.3-3.3-3.7L43.1,40.9L43.1,40.9z M36.5,46.5c-1.3,0.5-2.8,0.8-4.3,0.8
		c-1.5,0-3-0.3-4.3-0.8H36.5L36.5,46.5z M19.6,33.6c0.1-1.3,0.4-2.5,0.9-3.7h23.4c0.5,1.2,0.8,2.4,0.9,3.7H19.6z M21.4,28
		c0.9-1.5,2.1-2.7,3.4-3.7h14.7c1.4,1,2.6,2.2,3.4,3.7H21.4z M28.6,22.5c1.2-0.3,2.4-0.5,3.6-0.5c1.2,0,2.4,0.2,3.6,0.5H28.6z"/>
	<path class="st1" d="M44.8,33.6c-0.1-1.3-0.4-2.5-0.9-3.7L44.8,33.6z M43,28c-0.9-1.5-2.1-2.7-3.4-3.7L43,28z M35.8,22.5
		c-1.2-0.3-2.4-0.5-3.6-0.5c-1.2,0-2.4,0.2-3.6,0.5H35.8z M24.9,24.3c-1.4,1-2.6,2.2-3.4,3.7L24.9,24.3L24.9,24.3z M20.5,29.9
		c-0.5,1.2-0.8,2.4-0.9,3.7L20.5,29.9z M19.6,35.4c0.1,1.3,0.4,2.6,0.8,3.7L19.6,35.4z M21.3,40.9c0.8,1.4,1.9,2.7,3.3,3.7
		L21.3,40.9z M27.9,46.5c1.3,0.5,2.8,0.8,4.3,0.8c1.5,0,3-0.3,4.3-0.8H27.9z M39.9,44.6c1.3-1,2.4-2.3,3.3-3.7L39.9,44.6L39.9,44.6z
		 M44,39.1c0.5-1.2,0.7-2.4,0.8-3.7L44,39.1z M44.6,35.4c-0.1,1.3-0.4,2.5-0.8,3.7H20.6c-0.5-1.2-0.7-2.4-0.8-3.7H44.6L44.6,35.4z
		 M42.9,40.9c-0.9,1.4-2,2.7-3.4,3.7H24.8c-1.4-1-2.5-2.3-3.4-3.7L42.9,40.9L42.9,40.9z M35.9,46.5c-1.2,0.4-2.5,0.6-3.7,0.6
		c-1.3,0-2.5-0.2-3.7-0.6H35.9z M19.8,33.6c0.1-1.3,0.4-2.6,0.9-3.7h23c0.5,1.2,0.8,2.4,0.9,3.7H19.8z M21.6,28
		c0.9-1.5,2.1-2.7,3.6-3.7h14c1.4,1,2.6,2.2,3.6,3.7H21.6z M29.4,22.5c0.9-0.2,1.9-0.3,2.8-0.3c1,0,1.9,0.1,2.8,0.3H29.4L29.4,22.5z
		"/>
	<path class="st1" d="M44.6,33.6c-0.1-1.3-0.4-2.5-0.9-3.7L44.6,33.6z M42.7,28c-0.9-1.5-2.1-2.7-3.6-3.7L42.7,28z M35,22.5
		c-0.9-0.2-1.9-0.3-2.8-0.3c-1,0-1.9,0.1-2.8,0.3H35z M25.2,24.3c-1.4,1-2.6,2.2-3.6,3.7L25.2,24.3L25.2,24.3z M20.7,29.9
		c-0.5,1.2-0.8,2.4-0.9,3.7L20.7,29.9z M19.8,35.4c0.1,1.3,0.4,2.5,0.8,3.7L19.8,35.4L19.8,35.4z M21.5,40.9c0.9,1.4,2,2.7,3.4,3.7
		L21.5,40.9z M28.5,46.5c1.2,0.4,2.5,0.6,3.7,0.6c1.3,0,2.5-0.2,3.7-0.6H28.5L28.5,46.5z M39.5,44.6c1.4-1,2.5-2.3,3.4-3.7
		L39.5,44.6L39.5,44.6z M43.8,39.1c0.5-1.2,0.7-2.4,0.8-3.7L43.8,39.1z M44.4,35.4c-0.1,1.3-0.4,2.5-0.8,3.7H20.8
		c-0.5-1.2-0.8-2.4-0.8-3.7H44.4L44.4,35.4z M42.7,40.9c-0.9,1.5-2.1,2.7-3.5,3.7h-14c-1.4-1-2.6-2.2-3.5-3.7L42.7,40.9L42.7,40.9z
		 M35.2,46.5c-1,0.3-2,0.4-3,0.4c-1,0-2.1-0.1-3-0.4H35.2z M20,33.6c0.1-1.3,0.4-2.5,0.9-3.7h22.6c0.5,1.2,0.8,2.4,0.9,3.7H20z
		 M21.9,28c0.9-1.5,2.2-2.7,3.7-3.7h13.3c1.5,1,2.7,2.2,3.7,3.7H21.9L21.9,28z M30.4,22.5c1.2-0.2,2.4-0.2,3.6,0H30.4z"/>
	<path class="st1" d="M44.4,33.6c-0.1-1.3-0.4-2.5-0.9-3.7L44.4,33.6z M42.5,28c-0.9-1.5-2.2-2.7-3.7-3.7L42.5,28z M34,22.5
		c-1.2-0.2-2.4-0.2-3.6,0H34z M25.5,24.3c-1.5,1-2.7,2.2-3.7,3.7L25.5,24.3L25.5,24.3z M20.9,29.9c-0.5,1.2-0.8,2.4-0.9,3.7
		L20.9,29.9z M20,35.4c0.1,1.3,0.4,2.5,0.8,3.7L20,35.4L20,35.4z M21.7,40.9c0.9,1.5,2.1,2.7,3.5,3.7L21.7,40.9L21.7,40.9z
		 M29.2,46.5c1,0.2,2,0.4,3,0.4c1,0,2.1-0.1,3-0.4H29.2z M39.2,44.6c1.4-1,2.6-2.2,3.5-3.7L39.2,44.6L39.2,44.6z M43.6,39.1
		c0.5-1.2,0.8-2.4,0.8-3.7L43.6,39.1z M44.2,35.4c-0.1,1.3-0.4,2.5-0.8,3.7H21c-0.5-1.2-0.8-2.4-0.8-3.7H44.2L44.2,35.4z M42.5,40.9
		c-0.9,1.5-2.1,2.7-3.6,3.7H25.5c-1.4-1-2.7-2.2-3.6-3.7L42.5,40.9L42.5,40.9z M34.3,46.5c-0.7,0.1-1.4,0.2-2.1,0.2
		c-0.7,0-1.4-0.1-2.1-0.2H34.3z M20.2,33.6c0.1-1.3,0.4-2.5,0.9-3.7h22.2c0.5,1.2,0.8,2.4,0.9,3.7H20.2L20.2,33.6z M22.1,28
		c1-1.5,2.3-2.8,3.8-3.7h12.6c1.5,0.9,2.8,2.2,3.8,3.7L22.1,28L22.1,28z"/>
	<path class="st1" d="M44.2,33.6c-0.1-1.3-0.4-2.5-0.9-3.7L44.2,33.6z M42.3,28c-1-1.5-2.3-2.8-3.8-3.7L42.3,28z M25.9,24.3
		c-1.5,0.9-2.8,2.2-3.8,3.7L25.9,24.3z M21.1,29.9c-0.5,1.2-0.8,2.4-0.9,3.7L21.1,29.9z M20.2,35.4c0.1,1.3,0.4,2.5,0.8,3.7
		L20.2,35.4z M21.9,40.9c0.9,1.5,2.1,2.7,3.6,3.7L21.9,40.9L21.9,40.9z M30.1,46.5c0.7,0.1,1.4,0.2,2.1,0.2c0.7,0,1.4-0.1,2.1-0.2
		H30.1L30.1,46.5z M38.9,44.6c1.4-1,2.7-2.2,3.6-3.7L38.9,44.6z M43.4,39.1c0.5-1.2,0.8-2.4,0.8-3.7L43.4,39.1z M44,35.4
		c-0.1,1.3-0.4,2.5-0.9,3.7h-22c-0.5-1.2-0.8-2.4-0.9-3.7H44z M42.2,40.9c-0.9,1.5-2.2,2.8-3.7,3.7H25.8c-1.5-0.9-2.8-2.2-3.7-3.7
		H42.2z M20.4,33.6c0.1-1.3,0.4-2.6,0.9-3.7h21.8c0.5,1.2,0.8,2.4,0.9,3.7H20.4z M22.3,28c1-1.5,2.4-2.8,3.9-3.7h11.9
		c1.6,0.9,2.9,2.2,3.9,3.7H22.3L22.3,28z"/>
	<path class="st1" d="M44,33.6c-0.1-1.3-0.4-2.5-0.9-3.7L44,33.6z M42.1,28c-1-1.5-2.4-2.8-3.9-3.7L42.1,28z M26.3,24.3
		c-1.6,0.9-2.9,2.2-3.9,3.7L26.3,24.3z M21.3,29.9c-0.5,1.2-0.8,2.4-0.9,3.7L21.3,29.9z M20.3,35.4c0.1,1.3,0.4,2.6,0.9,3.7
		L20.3,35.4L20.3,35.4z M22.2,40.9c0.9,1.5,2.2,2.8,3.7,3.7L22.2,40.9L22.2,40.9z M38.5,44.6c1.5-0.9,2.8-2.2,3.7-3.7L38.5,44.6z
		 M43.2,39.1c0.5-1.2,0.8-2.4,0.9-3.7L43.2,39.1z M43.8,35.4c-0.1,1.3-0.4,2.5-0.9,3.7H21.4c-0.5-1.2-0.8-2.4-0.9-3.7H43.8
		L43.8,35.4z M42,40.9c-1,1.5-2.3,2.8-3.8,3.7H26.2c-1.5-0.9-2.8-2.2-3.8-3.7H42L42,40.9z M20.6,33.6c0.1-1.3,0.4-2.5,1-3.7h21.3
		c0.5,1.2,0.9,2.4,1,3.7H20.6L20.6,33.6z M22.6,28c1-1.5,2.4-2.8,4.1-3.7h11.1c1.6,0.9,3,2.2,4.1,3.7H22.6L22.6,28z"/>
	<path class="st1" d="M43.8,33.6c-0.1-1.3-0.4-2.5-1-3.7L43.8,33.6z M41.8,28c-1.1-1.5-2.5-2.8-4.1-3.7L41.8,28z M26.6,24.3
		c-1.6,0.9-3,2.2-4.1,3.7L26.6,24.3z M21.5,29.9c-0.5,1.2-0.8,2.4-1,3.7L21.5,29.9z M20.6,35.4c0.1,1.3,0.4,2.5,0.9,3.7L20.6,35.4z
		 M22.4,40.9c1,1.5,2.3,2.8,3.8,3.7L22.4,40.9L22.4,40.9z M38.2,44.6c1.5-0.9,2.9-2.2,3.8-3.7L38.2,44.6z M43,39.1
		c0.5-1.2,0.8-2.4,0.9-3.7L43,39.1z M43.7,35.4c-0.1,1.3-0.4,2.5-0.9,3.7H21.6c-0.5-1.2-0.8-2.4-0.9-3.7H43.7z M41.8,40.9
		c-1,1.5-2.4,2.8-4,3.7H26.6c-1.6-0.9-3-2.2-4-3.7H41.8z M20.8,33.6c0.1-1.3,0.5-2.6,1-3.7h20.9c0.5,1.2,0.9,2.4,1,3.7H20.8
		L20.8,33.6z M22.8,28c1.1-1.6,2.6-2.8,4.3-3.7h10.3c1.7,0.9,3.2,2.1,4.3,3.7H22.8L22.8,28z"/>
	<path class="st1" d="M43.6,33.6c-0.1-1.3-0.4-2.5-1-3.7L43.6,33.6z M41.6,28c-1.1-1.6-2.6-2.8-4.3-3.7L41.6,28z M27.1,24.3
		c-1.7,0.9-3.2,2.1-4.3,3.7L27.1,24.3z M21.7,29.9c-0.5,1.2-0.9,2.4-1,3.7L21.7,29.9z M20.8,35.4c0.1,1.3,0.4,2.5,0.9,3.7L20.8,35.4
		z M22.6,40.9c1,1.5,2.4,2.8,4,3.7L22.6,40.9L22.6,40.9z M37.8,44.6c1.6-0.9,3-2.2,4-3.7L37.8,44.6z M42.8,39.1
		c0.5-1.2,0.8-2.4,0.9-3.7L42.8,39.1z M43.5,35.4c-0.1,1.3-0.4,2.5-0.9,3.7H21.9c-0.5-1.2-0.8-2.4-0.9-3.7H43.5L43.5,35.4z
		 M41.6,40.9c-1.1,1.6-2.5,2.8-4.2,3.7H27c-1.7-0.9-3.1-2.1-4.1-3.7H41.6z M21,33.6c0.1-1.3,0.4-2.5,1-3.7h20.5
		c0.5,1.2,0.9,2.4,1,3.7H21z M23,28c1.1-1.6,2.7-2.9,4.5-3.7h9.4c1.8,0.8,3.3,2.1,4.5,3.7H23z"/>
	<path class="st1" d="M43.4,33.6c-0.1-1.3-0.5-2.5-1-3.7L43.4,33.6z M41.4,28c-1.1-1.6-2.7-2.9-4.5-3.7L41.4,28z M27.5,24.3
		c-1.8,0.8-3.3,2.1-4.5,3.7L27.5,24.3z M22,29.9c-0.5,1.2-0.9,2.4-1,3.7L22,29.9z M20.9,35.4c0.1,1.3,0.4,2.5,0.9,3.7L20.9,35.4z
		 M22.8,40.9c1.1,1.6,2.5,2.8,4.1,3.7L22.8,40.9L22.8,40.9z M37.4,44.6c1.7-0.9,3.1-2.1,4.2-3.7L37.4,44.6z M42.6,39.1
		c0.5-1.2,0.8-2.4,0.9-3.7L42.6,39.1z M43.2,35.4c-0.1,1.3-0.4,2.5-0.9,3.7H22.1c-0.5-1.2-0.8-2.4-0.9-3.7H43.2L43.2,35.4z
		 M41.3,40.9c-1.1,1.6-2.6,2.9-4.3,3.7h-9.6c-1.7-0.8-3.2-2.1-4.3-3.7H41.3L41.3,40.9z M21.2,33.6c0.1-1.3,0.5-2.6,1-3.7h20.1
		c0.6,1.2,0.9,2.4,1,3.7H21.2z M23.3,28c1.2-1.6,2.8-2.9,4.7-3.7h8.5c1.9,0.8,3.5,2.1,4.7,3.7H23.3z"/>
	<path class="st1" d="M43.2,33.6c-0.1-1.3-0.5-2.6-1-3.7L43.2,33.6z M41.1,28c-1.2-1.6-2.8-2.9-4.7-3.7L41.1,28z M28,24.3
		c-1.9,0.8-3.5,2.1-4.7,3.7L28,24.3z M22.2,29.9c-0.6,1.2-0.9,2.4-1,3.7L22.2,29.9z M21.1,35.4c0.1,1.3,0.4,2.6,0.9,3.7L21.1,35.4z
		 M23.1,40.9c1.1,1.6,2.6,2.9,4.3,3.7L23.1,40.9L23.1,40.9z M37,44.6c1.7-0.8,3.2-2.1,4.3-3.7L37,44.6z M42.3,39.1
		c0.5-1.2,0.8-2.4,0.9-3.7L42.3,39.1z M43.1,35.4c-0.1,1.3-0.4,2.5-0.9,3.7H22.3c-0.5-1.2-0.9-2.4-0.9-3.7H43.1L43.1,35.4z
		 M41.1,40.9c-1.2,1.6-2.7,2.9-4.6,3.7h-8.6c-1.8-0.8-3.4-2.1-4.6-3.7H41.1z M21.3,33.6c0.1-1.3,0.5-2.6,1-3.7H42
		c0.6,1.2,0.9,2.4,1,3.7H21.3z M23.5,28c1.3-1.7,3-3,5-3.7h7.4c2,0.7,3.7,2,5,3.7H23.5z"/>
	<path class="st1" d="M43,33.6c-0.1-1.3-0.5-2.6-1-3.7L43,33.6z M40.9,28c-1.3-1.7-3-3-5-3.7L40.9,28z M28.5,24.3
		c-2,0.7-3.7,2-5,3.7L28.5,24.3L28.5,24.3z M22.4,29.9c-0.6,1.2-0.9,2.4-1,3.7L22.4,29.9z M21.3,35.4c0.1,1.3,0.4,2.6,0.9,3.7
		L21.3,35.4z M23.3,40.9c1.2,1.6,2.7,2.9,4.6,3.7L23.3,40.9L23.3,40.9z M36.5,44.6c1.8-0.8,3.4-2.1,4.6-3.7L36.5,44.6z M42.1,39.1
		c0.5-1.2,0.9-2.4,0.9-3.7L42.1,39.1z M42.9,35.4c-0.1,1.3-0.4,2.5-1,3.7H22.5c-0.5-1.2-0.9-2.4-1-3.7H42.9L42.9,35.4z M40.8,40.9
		c-1.2,1.7-2.9,3-4.8,3.7h-7.6c-1.9-0.7-3.6-2-4.8-3.7H40.8L40.8,40.9z M21.5,33.6c0.1-1.3,0.5-2.6,1.1-3.7h19.2
		c0.6,1.2,0.9,2.4,1,3.7H21.5z M23.7,28c1.4-1.8,3.2-3,5.4-3.7h6.2c2.1,0.6,4,1.9,5.4,3.7H23.7z"/>
	<path class="st1" d="M42.8,33.6c-0.1-1.3-0.5-2.6-1-3.7L42.8,33.6z M40.7,28c-1.4-1.8-3.2-3.1-5.4-3.7L40.7,28z M29.1,24.3
		c-2.1,0.6-4,1.9-5.4,3.7L29.1,24.3L29.1,24.3z M22.6,29.9c-0.6,1.2-0.9,2.4-1.1,3.7L22.6,29.9z M21.5,35.4c0.1,1.3,0.4,2.6,1,3.7
		L21.5,35.4z M23.5,40.9c1.2,1.7,2.9,3,4.8,3.7L23.5,40.9L23.5,40.9z M36,44.6c1.9-0.7,3.6-2,4.8-3.7L36,44.6z M41.9,39.1
		c0.5-1.2,0.9-2.4,1-3.7L41.9,39.1z M42.7,35.4c-0.1,1.3-0.4,2.6-1,3.7h-19c-0.6-1.2-0.9-2.4-1-3.7H42.7L42.7,35.4z M40.6,40.9
		c-1.3,1.7-3.1,3-5.2,3.7h-6.5c-2.1-0.7-3.9-2-5.2-3.7H40.6z M21.7,33.6c0.1-1.3,0.5-2.6,1.1-3.7h18.8c0.6,1.2,0.9,2.4,1.1,3.7H21.7
		z M24,28c1.5-1.9,3.5-3.2,5.8-3.7h4.8c2.3,0.5,4.4,1.8,5.8,3.7H24L24,28z"/>
	<path class="st1" d="M42.7,33.6c-0.1-1.3-0.5-2.6-1.1-3.7L42.7,33.6z M40.4,28c-1.5-1.9-3.5-3.2-5.8-3.7L40.4,28z M29.8,24.3
		c-2.3,0.5-4.4,1.8-5.8,3.7L29.8,24.3L29.8,24.3z M22.8,29.9c-0.6,1.2-0.9,2.4-1.1,3.7L22.8,29.9z M21.7,35.4c0.1,1.3,0.4,2.6,1,3.7
		L21.7,35.4z M23.8,40.9c1.3,1.7,3.1,3,5.2,3.7L23.8,40.9L23.8,40.9z M35.4,44.6c2.1-0.7,3.9-2,5.2-3.7L35.4,44.6z M41.7,39.1
		c0.6-1.2,0.9-2.4,1-3.7L41.7,39.1z M42.5,35.4c-0.1,1.3-0.4,2.6-1,3.7H22.9c-0.6-1.2-0.9-2.4-1-3.7H42.5L42.5,35.4z M40.4,40.9
		c-1.4,1.8-3.4,3.1-5.6,3.7h-5.2c-2.2-0.6-4.2-1.9-5.6-3.7H40.4L40.4,40.9z M21.9,33.6c0.1-1.3,0.5-2.6,1.1-3.7h18.4
		c0.6,1.2,1,2.4,1.1,3.7H21.9z M24.2,28c1.7-2,4.1-3.4,6.7-3.7h2.6c2.6,0.3,5,1.7,6.7,3.7H24.2L24.2,28z"/>
	<path class="st1" d="M42.5,33.6c-0.1-1.3-0.5-2.6-1.1-3.7L42.5,33.6z M40.2,28c-1.7-2-4.1-3.4-6.7-3.7L40.2,28z M30.9,24.3
		c-2.6,0.3-5,1.7-6.7,3.7L30.9,24.3z M23,29.9c-0.6,1.2-1,2.4-1.1,3.7L23,29.9z M21.9,35.4c0.1,1.3,0.4,2.6,1,3.7L21.9,35.4z
		 M24,40.9c1.4,1.8,3.4,3.1,5.6,3.7L24,40.9L24,40.9z M34.8,44.6c2.2-0.6,4.2-1.9,5.6-3.7L34.8,44.6z M41.5,39.1
		c0.6-1.2,0.9-2.4,1-3.7L41.5,39.1z M42.3,35.4c-0.1,1.3-0.4,2.6-1,3.7H23.1c-0.6-1.2-0.9-2.4-1-3.7H42.3z M40.1,40.9
		c-1.6,2-3.8,3.3-6.3,3.7h-3.3c-2.5-0.4-4.7-1.7-6.3-3.7H40.1z M22.1,33.6c0.1-1.3,0.5-2.6,1.1-3.7h17.9c0.6,1.2,1,2.4,1.1,3.7H22.1
		z M24.5,28c1.9-2.2,4.6-3.6,7.7-3.6c3.1,0,5.9,1.4,7.7,3.6H24.5L24.5,28z"/>
	<path class="st1" d="M42.3,33.6c-0.1-1.3-0.5-2.6-1.1-3.7L42.3,33.6z M39.9,28c-1.9-2.2-4.6-3.6-7.7-3.6c-3,0-5.8,1.3-7.7,3.6H39.9
		z M23.2,29.9c-0.6,1.2-1,2.4-1.1,3.7L23.2,29.9z M22.1,35.4c0.1,1.3,0.4,2.6,1,3.7L22.1,35.4z M24.3,40.9c1.6,2,3.8,3.3,6.3,3.7
		L24.3,40.9L24.3,40.9z M33.8,44.6c2.5-0.4,4.7-1.7,6.3-3.7L33.8,44.6z M41.3,39.1c0.6-1.2,0.9-2.4,1-3.7L41.3,39.1z M42.1,35.4
		c-0.1,1.3-0.5,2.6-1,3.7H23.3c-0.6-1.2-0.9-2.4-1-3.7H42.1L42.1,35.4z M39.9,40.9c-1.8,2.2-4.6,3.6-7.7,3.6c-3.1,0-5.9-1.4-7.7-3.6
		H39.9L39.9,40.9z M22.3,33.6c0.1-1.3,0.5-2.6,1.1-3.7h17.5c0.6,1.2,1,2.4,1.1,3.7H22.3z M24.7,28c1.8-2.1,4.5-3.4,7.5-3.4
		c3,0,5.7,1.3,7.5,3.4H24.7L24.7,28z"/>
	<path class="st1" d="M42.1,33.6c-0.1-1.3-0.5-2.6-1.1-3.7L42.1,33.6z M39.7,28c-1.8-2.1-4.5-3.4-7.5-3.4S26.5,26,24.7,28H39.7z
		 M23.4,29.9c-0.6,1.2-1,2.4-1.1,3.7L23.4,29.9z M22.3,35.4c0.1,1.3,0.5,2.6,1,3.7L22.3,35.4z M24.5,40.9c1.8,2.2,4.6,3.6,7.7,3.6
		s5.9-1.4,7.7-3.6H24.5L24.5,40.9z M41.1,39.1c0.6-1.2,0.9-2.4,1-3.7L41.1,39.1z M41.9,35.4c-0.1,1.3-0.5,2.6-1.1,3.7H23.5
		c-0.6-1.2-1-2.4-1.1-3.7H41.9L41.9,35.4z M39.6,40.9c-1.9,2.2-4.6,3.5-7.5,3.5c-2.9,0-5.6-1.3-7.5-3.5H39.6z M22.5,33.6
		c0.1-1.3,0.5-2.6,1.2-3.7h17.1c0.6,1.1,1,2.4,1.2,3.7H22.5z M25,28c1.8-2,4.4-3.2,7.2-3.2c2.9,0,5.4,1.2,7.2,3.2H25L25,28z"/>
	<path class="st1" d="M41.9,33.6c-0.1-1.3-0.5-2.6-1.2-3.7L41.9,33.6z M39.4,28c-1.8-2-4.4-3.2-7.2-3.2c-2.9,0-5.4,1.2-7.2,3.2H39.4
		z M23.7,29.9c-0.6,1.1-1,2.4-1.2,3.7L23.7,29.9z M22.5,35.4c0.1,1.3,0.5,2.6,1.1,3.7L22.5,35.4z M24.7,40.9
		c1.9,2.2,4.6,3.5,7.5,3.5c3,0,5.7-1.3,7.5-3.5H24.7L24.7,40.9z M40.9,39.1c0.6-1.2,1-2.4,1.1-3.7L40.9,39.1z M41.7,35.4
		c-0.1,1.3-0.5,2.6-1.1,3.7H23.7c-0.6-1.2-1-2.4-1.1-3.7H41.7L41.7,35.4z M39.4,40.9c-1.8,2-4.3,3.3-7.2,3.3c-2.9,0-5.4-1.3-7.2-3.3
		H39.4z M22.7,33.6c0.1-1.3,0.5-2.6,1.2-3.7h16.7c0.7,1.1,1.1,2.4,1.2,3.7H22.7z M25.2,28c1.8-1.9,4.3-3,7-3c2.7,0,5.2,1.2,7,3H25.2
		z"/>
	<path class="st1" d="M41.7,33.6c-0.1-1.3-0.5-2.6-1.2-3.7L41.7,33.6z M39.2,28c-1.8-1.9-4.3-3-7-3c-2.6,0-5.2,1.1-7,3H39.2z
		 M23.9,29.9c-0.7,1.1-1.1,2.4-1.2,3.7L23.9,29.9z M22.6,35.4c0.1,1.3,0.5,2.6,1.1,3.7L22.6,35.4z M25,40.9c1.8,2,4.3,3.3,7.2,3.3
		c2.9,0,5.4-1.3,7.2-3.3H25L25,40.9z M40.6,39.1c0.6-1.2,1-2.4,1.1-3.7L40.6,39.1z M41.5,35.4c-0.1,1.3-0.5,2.6-1.1,3.7H24
		c-0.6-1.1-1-2.4-1.1-3.7H41.5L41.5,35.4z M39.1,40.9c-1.7,1.9-4.2,3.1-6.9,3.1s-5.2-1.2-6.9-3.1H39.1z M22.9,33.6
		c0.1-1.3,0.6-2.6,1.2-3.7h16.2c0.7,1.1,1.1,2.4,1.2,3.7H22.9z M25.5,28c1.8-1.8,4.2-2.8,6.7-2.8c2.6,0,5,1.1,6.7,2.8H25.5z"/>
	<path class="st1" d="M41.5,33.6c-0.1-1.3-0.6-2.6-1.2-3.7L41.5,33.6z M38.9,28c-1.8-1.8-4.2-2.8-6.7-2.8c-2.5,0-4.9,1-6.7,2.8H38.9
		z M24.1,29.9c-0.7,1.1-1.1,2.4-1.2,3.7L24.1,29.9z M22.8,35.4c0.1,1.3,0.5,2.6,1.1,3.7L22.8,35.4z M25.2,40.9
		c1.7,1.9,4.2,3.1,6.9,3.1s5.2-1.2,6.9-3.1H25.2L25.2,40.9z M40.4,39.1c0.6-1.1,1-2.4,1.1-3.7L40.4,39.1z M41.4,35.4
		c-0.1,1.3-0.5,2.6-1.1,3.7h-16c-0.6-1.1-1-2.4-1.1-3.7H41.4z M38.9,40.9c-1.7,1.8-4.1,2.9-6.7,2.9s-5-1.1-6.7-2.9H38.9z M23.1,33.6
		c0.1-1.3,0.6-2.6,1.3-3.7h15.8c0.7,1.1,1.1,2.4,1.3,3.7H23.1z M25.7,28c1.7-1.7,4-2.6,6.4-2.6c2.5,0,4.8,1,6.4,2.6H25.7z"/>
	<path class="st1" d="M41.3,33.6c-0.1-1.3-0.6-2.6-1.3-3.7L41.3,33.6z M38.6,28c-1.7-1.7-4-2.6-6.4-2.6c-2.4,0-4.7,0.9-6.4,2.6H38.6
		z M24.3,29.9c-0.7,1.1-1.1,2.4-1.3,3.7L24.3,29.9z M23,35.4c0.1,1.3,0.5,2.6,1.1,3.7L23,35.4z M25.5,40.9c1.7,1.8,4.1,2.9,6.7,2.9
		s5-1.1,6.7-2.9H25.5L25.5,40.9z M40.2,39.1c0.6-1.1,1-2.4,1.1-3.7L40.2,39.1z M41.2,35.4c-0.1,1.3-0.5,2.6-1.2,3.7H24.4
		c-0.7-1.1-1.1-2.4-1.2-3.7L41.2,35.4L41.2,35.4z M38.6,40.9c-1.7,1.7-4,2.7-6.4,2.7c-2.5,0-4.8-1-6.4-2.7H38.6z M23.2,33.6
		c0.2-1.4,0.6-2.6,1.3-3.7h15.3c0.7,1.1,1.1,2.4,1.3,3.7H23.2z M26,28c1.7-1.6,3.9-2.5,6.2-2.5c2.4,0,4.6,0.9,6.2,2.5H26z"/>
	<path class="st1" d="M41.1,33.6c-0.1-1.3-0.6-2.6-1.3-3.7L41.1,33.6z M38.4,28c-1.7-1.6-3.9-2.5-6.2-2.5c-2.3,0-4.5,0.9-6.2,2.5
		H38.4z M24.5,29.9c-0.7,1.1-1.1,2.4-1.3,3.7L24.5,29.9z M23.2,35.4c0.1,1.3,0.5,2.6,1.2,3.7L23.2,35.4z M25.8,40.9
		c1.7,1.7,4,2.7,6.4,2.7c2.5,0,4.8-1,6.4-2.7H25.8L25.8,40.9z M40,39.1c0.7-1.1,1.1-2.4,1.2-3.7L40,39.1z M41,35.4
		c-0.1,1.3-0.5,2.6-1.2,3.7H24.6c-0.7-1.1-1.1-2.4-1.2-3.7H41z M38.3,40.9c-1.6,1.6-3.9,2.5-6.2,2.5c-2.3,0-4.5-0.9-6.2-2.5H38.3z
		 M23.4,33.6c0.2-1.3,0.6-2.6,1.3-3.7h14.9c0.7,1.1,1.2,2.4,1.3,3.7H23.4z M26.3,28c1.6-1.4,3.7-2.2,5.9-2.2c2.3,0,4.3,0.8,5.9,2.2
		H26.3z"/>
	<path class="st1" d="M41,33.6c-0.2-1.3-0.6-2.6-1.3-3.7L41,33.6z M38.1,28c-1.6-1.4-3.7-2.2-5.9-2.2c-2.2,0-4.3,0.8-5.9,2.2H38.1
		L38.1,28z M24.7,29.9c-0.7,1.1-1.2,2.4-1.3,3.7L24.7,29.9z M23.4,35.4c0.1,1.3,0.5,2.6,1.2,3.7L23.4,35.4z M26,40.9
		c1.6,1.6,3.9,2.5,6.2,2.5c2.4,0,4.6-1,6.2-2.5H26L26,40.9z M39.8,39.1c0.7-1.1,1.1-2.4,1.2-3.7L39.8,39.1z M40.8,35.4
		c-0.1,1.3-0.5,2.6-1.2,3.7H24.8c-0.7-1.1-1.1-2.4-1.2-3.7H40.8L40.8,35.4z M38.1,40.9c-1.6,1.5-3.7,2.3-5.9,2.3
		c-2.2,0-4.3-0.8-5.9-2.3H38.1z M23.6,33.6c0.2-1.3,0.6-2.6,1.4-3.7h14.4c0.7,1.1,1.2,2.4,1.4,3.7H23.6z M26.6,28
		c1.6-1.3,3.5-2.1,5.6-2.1c2.1,0,4.1,0.8,5.6,2.1H26.6z"/>
	<path class="st1" d="M40.8,33.6c-0.2-1.3-0.6-2.6-1.4-3.7L40.8,33.6z M37.8,28c-1.6-1.3-3.5-2.1-5.6-2.1c-2.1,0-4.1,0.8-5.6,2.1
		H37.8z M25,29.9c-0.7,1.1-1.2,2.4-1.4,3.7L25,29.9z M23.6,35.4c0.1,1.3,0.5,2.6,1.2,3.7L23.6,35.4z M26.3,40.9
		c1.6,1.5,3.7,2.3,5.9,2.3c2.3,0,4.3-0.9,5.9-2.3H26.3z M39.5,39.1c0.7-1.1,1.1-2.4,1.2-3.7L39.5,39.1z M40.6,35.4
		c-0.1,1.3-0.6,2.6-1.3,3.7H25.1c-0.7-1.1-1.1-2.4-1.3-3.7H40.6L40.6,35.4z M37.8,40.9c-1.5,1.4-3.5,2.1-5.6,2.1
		c-2.1,0-4.1-0.8-5.6-2.1H37.8z M23.8,33.6c0.2-1.3,0.6-2.6,1.4-3.7h14c0.8,1.1,1.2,2.4,1.4,3.7H23.8z M26.9,28
		c1.5-1.2,3.4-1.9,5.3-1.9c2,0,3.8,0.7,5.3,1.9H26.9z"/>
	<path class="st1" d="M40.6,33.6c-0.2-1.3-0.6-2.6-1.4-3.7L40.6,33.6z M37.5,28c-1.5-1.2-3.4-1.9-5.3-1.9c-1.9,0-3.8,0.7-5.3,1.9
		H37.5z M25.2,29.9c-0.8,1.1-1.2,2.4-1.4,3.7L25.2,29.9z M23.8,35.4c0.1,1.3,0.6,2.6,1.3,3.7L23.8,35.4z M26.6,40.9
		c1.5,1.4,3.5,2.1,5.6,2.1c2.1,0,4.1-0.8,5.6-2.1H26.6L26.6,40.9z M39.3,39.1c0.7-1.1,1.1-2.4,1.3-3.7L39.3,39.1z M40.4,35.4
		c-0.1,1.3-0.6,2.6-1.3,3.7H25.3c-0.7-1.1-1.2-2.4-1.3-3.7H40.4z M37.5,40.9c-1.5,1.2-3.4,1.9-5.3,1.9c-1.9,0-3.8-0.7-5.3-1.9H37.5z
		 M24,33.6c0.2-1.3,0.7-2.6,1.4-3.7h13.5c0.8,1.1,1.3,2.4,1.4,3.7H24L24,33.6z M27.2,28c1.4-1.1,3.2-1.7,5-1.7c1.9,0,3.6,0.6,5,1.7
		H27.2z"/>
	<path class="st1" d="M40.4,33.6c-0.2-1.3-0.7-2.6-1.4-3.7L40.4,33.6z M37.2,28c-1.4-1.1-3.2-1.7-5-1.7c-1.8,0-3.5,0.6-5,1.7H37.2z
		 M25.4,29.9c-0.8,1.1-1.3,2.4-1.4,3.7L25.4,29.9L25.4,29.9z M24,35.4c0.1,1.3,0.6,2.6,1.3,3.7L24,35.4z M26.9,40.9
		c1.5,1.2,3.4,1.9,5.3,1.9c2,0,3.9-0.7,5.3-1.9H26.9z M39.1,39.1c0.7-1.1,1.2-2.4,1.3-3.7L39.1,39.1z M40.2,35.4
		c-0.1,1.3-0.6,2.6-1.3,3.7H25.5c-0.8-1.1-1.2-2.4-1.3-3.7H40.2z M37.2,40.9c-1.4,1.1-3.2,1.7-5,1.7c-1.9,0-3.6-0.6-5-1.7H37.2z
		 M24.2,33.6c0.2-1.3,0.7-2.6,1.5-3.7h13.1c0.8,1.1,1.3,2.4,1.5,3.7H24.2z M27.5,28c1.3-0.9,2.9-1.5,4.7-1.5c1.7,0,3.4,0.5,4.7,1.5
		H27.5z"/>
	<path class="st1" d="M40.2,33.6c-0.2-1.3-0.7-2.6-1.5-3.7L40.2,33.6z M36.9,28c-1.3-0.9-2.9-1.5-4.7-1.5c-1.7,0-3.4,0.5-4.7,1.5
		H36.9L36.9,28z M25.7,29.9c-0.8,1.1-1.3,2.4-1.5,3.7L25.7,29.9z M24.2,35.4c0.1,1.4,0.6,2.6,1.3,3.7L24.2,35.4z M27.2,40.9
		c1.4,1.1,3.2,1.7,5,1.7c1.9,0,3.6-0.6,5-1.7H27.2L27.2,40.9z M38.9,39.1c0.8-1.1,1.2-2.4,1.3-3.7L38.9,39.1z M40,35.4
		c-0.1,1.3-0.6,2.6-1.4,3.7H25.7c-0.8-1.1-1.3-2.4-1.4-3.7H40L40,35.4z M36.9,40.9c-1.3,1-2.9,1.5-4.7,1.5c-1.8,0-3.4-0.6-4.7-1.5
		H36.9z M24.4,33.6c0.2-1.4,0.7-2.6,1.5-3.7h12.6c0.8,1.1,1.3,2.4,1.5,3.7H24.4z M27.9,28c1.3-0.8,2.8-1.3,4.3-1.3
		c1.6,0,3.1,0.5,4.3,1.3H27.9z"/>
	<path class="st1" d="M40,33.6c-0.2-1.4-0.7-2.6-1.5-3.7L40,33.6z M36.5,28c-1.3-0.8-2.8-1.3-4.3-1.3c-1.5,0-3,0.4-4.3,1.3H36.5z
		 M25.9,29.9c-0.8,1.1-1.3,2.4-1.5,3.7L25.9,29.9z M24.4,35.4c0.1,1.3,0.6,2.6,1.4,3.7L24.4,35.4z M27.5,40.9c1.3,1,2.9,1.5,4.7,1.5
		c1.8,0,3.4-0.6,4.7-1.5H27.5z M38.6,39.1c0.8-1.1,1.3-2.4,1.4-3.7L38.6,39.1z M39.8,35.4c-0.1,1.3-0.6,2.6-1.4,3.7H26
		c-0.8-1.1-1.3-2.4-1.4-3.7H39.8L39.8,35.4z M36.5,40.9c-1.3,0.9-2.8,1.4-4.4,1.3c-1.6,0-3.1-0.5-4.4-1.3H36.5z M24.6,33.6
		c0.2-1.4,0.7-2.6,1.6-3.7h12.1c0.8,1.1,1.4,2.4,1.6,3.7H24.6z M28.2,28c1.2-0.7,2.6-1.1,4-1.1c1.5,0,2.8,0.4,4,1.1H28.2L28.2,28z"
		/>
	<path class="st1" d="M39.8,33.6c-0.2-1.4-0.7-2.6-1.6-3.7L39.8,33.6z M36.2,28c-1.2-0.7-2.6-1.1-4-1.1c-1.5,0-2.8,0.4-4,1.1H36.2z
		 M26.1,29.9c-0.8,1.1-1.4,2.4-1.6,3.7L26.1,29.9z M24.5,35.4c0.1,1.3,0.6,2.6,1.4,3.7L24.5,35.4z M27.8,40.9
		c1.3,0.9,2.8,1.4,4.4,1.3c1.6,0,3.1-0.5,4.4-1.3H27.8L27.8,40.9z M38.4,39.1c0.8-1.1,1.3-2.4,1.4-3.7L38.4,39.1z M39.6,35.4
		c-0.1,1.4-0.7,2.6-1.5,3.7h-12c-0.8-1.1-1.3-2.4-1.5-3.7H39.6z M36.2,40.9c-1.2,0.7-2.5,1.2-4,1.2c-1.5,0-2.8-0.4-4-1.2H36.2
		L36.2,40.9z M24.8,33.6c0.2-1.4,0.7-2.7,1.6-3.7H38c0.9,1.1,1.4,2.4,1.6,3.7H24.8z M28.6,28c1.1-0.6,2.3-0.9,3.6-0.9
		c1.3,0,2.5,0.3,3.6,0.9H28.6L28.6,28z"/>
	<path class="st1" d="M39.6,33.6c-0.2-1.4-0.7-2.7-1.6-3.7L39.6,33.6z M35.8,28c-1.1-0.6-2.3-0.9-3.6-0.9c-1.3,0-2.5,0.3-3.6,0.9
		H35.8L35.8,28z M26.4,29.9c-0.9,1.1-1.4,2.4-1.6,3.7L26.4,29.9z M24.7,35.4c0.1,1.4,0.7,2.6,1.5,3.7L24.7,35.4z M28.2,40.9
		c1.2,0.7,2.5,1.2,4,1.2c1.5,0,2.8-0.4,4-1.2H28.2L28.2,40.9z M38.2,39.1c0.8-1.1,1.3-2.4,1.5-3.7L38.2,39.1z M39.5,35.4
		c-0.1,1.4-0.7,2.6-1.5,3.7H26.5c-0.9-1.1-1.4-2.4-1.5-3.7L39.5,35.4L39.5,35.4z M35.8,40.9c-1.1,0.6-2.4,1-3.7,1
		c-1.3,0-2.6-0.4-3.6-1H35.8L35.8,40.9z M25,33.6c0.2-1.4,0.8-2.7,1.7-3.7h11.1c0.9,1.1,1.5,2.3,1.7,3.7H25L25,33.6z M29,28
		c1-0.5,2.1-0.7,3.2-0.7c1.1,0,2.2,0.3,3.2,0.7H29L29,28z"/>
	<path class="st1" d="M39.4,33.6c-0.2-1.4-0.8-2.7-1.7-3.7L39.4,33.6z M35.4,28c-1-0.5-2.1-0.7-3.2-0.7c-1.1,0-2.2,0.3-3.2,0.7H35.4
		L35.4,28z M26.6,29.9c-0.9,1.1-1.5,2.3-1.7,3.7L26.6,29.9z M24.9,35.4c0.1,1.4,0.7,2.7,1.5,3.7L24.9,35.4z M28.6,40.9
		c1.1,0.6,2.4,1,3.6,1c1.3,0,2.6-0.4,3.7-1H28.6L28.6,40.9z M37.9,39.1c0.8-1.1,1.4-2.4,1.5-3.7L37.9,39.1z M39.3,35.4
		c-0.2,1.4-0.7,2.7-1.6,3.7h-11c-0.9-1.1-1.4-2.4-1.6-3.7H39.3z M35.4,40.9c-1,0.5-2.1,0.8-3.3,0.8c-1.1,0-2.2-0.3-3.3-0.8H35.4z
		 M25.1,33.6c0.2-1.4,0.8-2.7,1.7-3.7h10.6c0.9,1,1.5,2.3,1.7,3.7H25.1z M29.5,28c0.9-0.4,1.8-0.5,2.7-0.5c1,0,1.9,0.2,2.7,0.5H29.5
		L29.5,28z"/>
	<path class="st1" d="M39.2,33.6c-0.2-1.4-0.8-2.7-1.7-3.7L39.2,33.6z M34.9,28c-0.9-0.4-1.8-0.5-2.7-0.5c-1,0-1.9,0.2-2.7,0.5H34.9
		z M26.9,29.9c-0.9,1-1.5,2.3-1.7,3.7L26.9,29.9z M25.1,35.4c0.2,1.4,0.7,2.7,1.6,3.7L25.1,35.4z M28.9,40.9c1,0.5,2.1,0.8,3.3,0.8
		c1.2,0,2.3-0.3,3.3-0.8H28.9L28.9,40.9z M37.7,39.1c0.9-1.1,1.4-2.4,1.6-3.7L37.7,39.1z M39.1,35.4c-0.2,1.4-0.7,2.7-1.6,3.7H26.9
		c-0.9-1-1.5-2.3-1.6-3.7H39.1z M35,40.9c-0.9,0.4-1.8,0.6-2.8,0.6c-1,0-1.9-0.2-2.8-0.6H35z M25.3,33.6c0.2-1.4,0.8-2.7,1.8-3.7
		h10.1c1,1,1.6,2.3,1.8,3.7H25.3z M30,28c0.7-0.2,1.4-0.4,2.2-0.4c0.8,0,1.5,0.1,2.2,0.4H30z"/>
	<path class="st1" d="M39,33.6c-0.2-1.4-0.8-2.7-1.8-3.7L39,33.6z M34.4,28c-0.7-0.2-1.4-0.4-2.2-0.4c-0.8,0-1.5,0.1-2.2,0.4H34.4z
		 M27.1,29.9c-1,1-1.6,2.3-1.8,3.7L27.1,29.9L27.1,29.9z M25.3,35.4c0.2,1.4,0.7,2.7,1.6,3.7L25.3,35.4z M29.4,40.9
		c0.9,0.4,1.8,0.6,2.8,0.6c1,0,2-0.2,2.8-0.6H29.4L29.4,40.9z M37.4,39.1c0.9-1,1.5-2.3,1.6-3.7L37.4,39.1z M38.9,35.4
		c-0.2,1.4-0.8,2.7-1.7,3.7h-10c-0.9-1-1.5-2.3-1.7-3.7H38.9z M34.5,40.9c-0.7,0.3-1.5,0.4-2.3,0.4c-0.8,0-1.6-0.1-2.3-0.4H34.5z
		 M25.5,33.6c0.2-1.4,0.9-2.7,1.9-3.7H37c1,1,1.7,2.3,1.9,3.7H25.5z M30.7,28c0.5-0.1,1-0.2,1.5-0.2c0.5,0,1,0.1,1.5,0.2H30.7
		L30.7,28z"/>
	<path class="st1" d="M38.9,33.6c-0.2-1.4-0.9-2.7-1.9-3.7L38.9,33.6z M33.7,28c-0.5-0.1-1-0.2-1.5-0.2c-0.5,0-1,0.1-1.5,0.2H33.7
		L33.7,28z M27.4,29.9c-1,1-1.7,2.3-1.9,3.7L27.4,29.9z M25.5,35.4c0.2,1.4,0.8,2.7,1.7,3.7L25.5,35.4z M29.9,40.9
		c0.7,0.3,1.5,0.4,2.3,0.4c0.8,0,1.6-0.1,2.3-0.4H29.9z M37.2,39.1c0.9-1,1.5-2.3,1.7-3.7L37.2,39.1z M38.7,35.4
		c-0.2,1.4-0.8,2.7-1.8,3.7h-9.5c-1-1-1.6-2.3-1.8-3.7H38.7L38.7,35.4z M33.9,40.9c-1.1,0.3-2.3,0.3-3.4,0H33.9z M25.7,33.6
		c0.2-1.4,0.9-2.7,2-3.7h9c1,1,1.7,2.3,2,3.7H25.7z"/>
	<path class="st1" d="M38.7,33.6c-0.2-1.4-0.9-2.7-2-3.7L38.7,33.6z M27.7,29.9c-1,1-1.7,2.3-2,3.7L27.7,29.9z M25.7,35.4
		c0.2,1.4,0.8,2.7,1.8,3.7L25.7,35.4z M30.5,40.9c1.1,0.3,2.3,0.3,3.4,0H30.5L30.5,40.9z M36.9,39.1c1-1,1.6-2.3,1.8-3.7L36.9,39.1z
		 M38.5,35.4c-0.2,1.4-0.8,2.7-1.8,3.7h-9c-1-1-1.7-2.3-1.8-3.7H38.5L38.5,35.4z M32.8,40.9c-0.2,0-0.4,0-0.6,0s-0.4,0-0.6,0H32.8z
		 M25.9,33.6c0.2-1.4,1-2.8,2-3.7h8.5c1.1,1,1.8,2.3,2,3.7H25.9z"/>
	<path class="st1" d="M38.5,33.6c-0.2-1.4-1-2.8-2-3.7L38.5,33.6z M27.9,29.9c-1.1,1-1.8,2.3-2,3.7L27.9,29.9z M25.9,35.4
		c0.2,1.4,0.8,2.7,1.8,3.7L25.9,35.4z M31.6,40.9c0.2,0,0.4,0,0.6,0s0.4,0,0.6,0H31.6z M36.7,39.1c1-1,1.7-2.3,1.8-3.7L36.7,39.1z
		 M38.3,35.4c-0.2,1.4-0.9,2.7-1.9,3.7H28c-1.1-1-1.7-2.3-1.9-3.7H38.3z M26.1,33.6c0.2-1.5,1-2.8,2.1-3.7h7.9
		c1.1,0.9,1.9,2.3,2.1,3.7H26.1L26.1,33.6z"/>
	<path class="st1" d="M38.3,33.6c-0.2-1.5-1-2.8-2.1-3.7L38.3,33.6z M28.2,29.9c-1.1,0.9-1.9,2.3-2.1,3.7L28.2,29.9z M26.1,35.4
		c0.2,1.4,0.9,2.7,1.9,3.7L26.1,35.4z M36.4,39.1c1.1-1,1.7-2.3,1.9-3.7L36.4,39.1z M38.1,35.4c-0.2,1.4-0.9,2.8-2,3.7h-7.8
		c-1.1-1-1.8-2.3-2-3.7H38.1z M26.3,33.6c0.3-1.5,1.1-2.8,2.2-3.7h7.3c1.2,0.9,2,2.2,2.3,3.7H26.3L26.3,33.6z"/>
	<path class="st1" d="M38.1,33.6c-0.3-1.5-1.1-2.8-2.3-3.7L38.1,33.6z M28.6,29.9c-1.2,0.9-2,2.2-2.2,3.7L28.6,29.9z M26.3,35.4
		c0.2,1.4,0.9,2.8,2,3.7L26.3,35.4z M36.1,39.1c1.1-1,1.8-2.3,2-3.7L36.1,39.1z M37.9,35.4c-0.2,1.5-1,2.8-2.1,3.7h-7.2
		c-1.2-0.9-1.9-2.3-2.1-3.7H37.9L37.9,35.4z M26.5,33.6c0.3-1.5,1.1-2.8,2.4-3.7h6.7c1.3,0.9,2.1,2.2,2.4,3.7H26.5L26.5,33.6z"/>
	<path class="st1" d="M37.9,33.6c-0.3-1.5-1.1-2.8-2.4-3.7L37.9,33.6z M28.9,29.9c-1.2,0.9-2.1,2.2-2.4,3.7L28.9,29.9z M26.5,35.4
		c0.2,1.5,1,2.8,2.1,3.7L26.5,35.4L26.5,35.4z M35.8,39.1c1.2-0.9,1.9-2.3,2.1-3.7L35.8,39.1z M37.7,35.4c-0.2,1.5-1,2.8-2.2,3.7
		h-6.6c-1.2-0.9-2-2.2-2.2-3.7H37.7z M26.7,33.6c0.3-1.5,1.2-2.9,2.5-3.7h6c1.3,0.8,2.2,2.2,2.5,3.7H26.7z"/>
	<path class="st1" d="M37.7,33.6c-0.3-1.5-1.2-2.9-2.5-3.7L37.7,33.6z M29.2,29.9c-1.3,0.8-2.2,2.2-2.5,3.7L29.2,29.9z M26.7,35.4
		c0.2,1.5,1,2.8,2.2,3.7L26.7,35.4z M35.5,39.1c1.2-0.9,2-2.2,2.2-3.7L35.5,39.1z M37.5,35.4c-0.2,1.5-1.1,2.9-2.4,3.7h-5.9
		c-1.3-0.8-2.1-2.2-2.4-3.7H37.5z M26.9,33.6c0.3-1.6,1.3-2.9,2.7-3.7h5.2c1.4,0.8,2.4,2.1,2.7,3.7H26.9z"/>
	<path class="st1" d="M37.5,33.6c-0.3-1.6-1.3-2.9-2.7-3.7L37.5,33.6z M29.6,29.9c-1.4,0.8-2.4,2.1-2.7,3.7L29.6,29.9L29.6,29.9z
		 M26.9,35.4c0.2,1.5,1.1,2.9,2.4,3.7L26.9,35.4z M35.2,39.1c1.3-0.8,2.1-2.2,2.4-3.7L35.2,39.1z M37.3,35.4
		c-0.2,1.6-1.2,2.9-2.5,3.7h-5.2c-1.4-0.8-2.3-2.2-2.5-3.7H37.3L37.3,35.4z M27.1,33.6c0.3-1.6,1.4-3,2.9-3.7h4.4
		c1.5,0.7,2.6,2.1,2.9,3.7H27.1L27.1,33.6z"/>
	<path class="st1" d="M37.3,33.6c-0.3-1.6-1.4-3-2.9-3.7L37.3,33.6z M30,29.9c-1.5,0.7-2.6,2.1-2.9,3.7L30,29.9z M27,35.4
		c0.2,1.6,1.2,2.9,2.5,3.7L27,35.4z M34.8,39.1c1.4-0.8,2.3-2.2,2.5-3.7L34.8,39.1z M37.1,35.4c-0.3,1.6-1.3,3-2.7,3.7H30
		c-1.5-0.7-2.5-2.1-2.7-3.7H37.1z M27.3,33.6c0.4-1.7,1.6-3.1,3.2-3.7h3.4c1.6,0.6,2.9,2,3.2,3.7H27.3z"/>
	<path class="st1" d="M37.1,33.6c-0.4-1.7-1.6-3.1-3.2-3.7L37.1,33.6z M30.5,29.9c-1.6,0.6-2.9,2-3.2,3.7L30.5,29.9z M27.2,35.4
		c0.3,1.6,1.3,3,2.7,3.7L27.2,35.4z M34.4,39.1c1.5-0.7,2.5-2.1,2.7-3.7L34.4,39.1z M37,35.4c-0.3,1.7-1.4,3.1-3,3.7h-3.5
		c-1.6-0.6-2.7-2-3-3.7H37L37,35.4z M27.5,33.6c0.4-1.9,1.9-3.3,3.7-3.7h2c1.9,0.4,3.3,1.9,3.7,3.7H27.5z"/>
	<path class="st1" d="M36.9,33.6c-0.4-1.9-1.9-3.3-3.7-3.7L36.9,33.6z M31.2,29.9c-1.9,0.4-3.3,1.9-3.7,3.7L31.2,29.9z M27.4,35.4
		c0.3,1.7,1.4,3.1,3,3.7L27.4,35.4L27.4,35.4z M33.9,39.1c1.6-0.6,2.7-2,3-3.7L33.9,39.1z M36.8,35.4c-0.3,1.8-1.7,3.3-3.5,3.7h-2.2
		c-1.8-0.4-3.1-1.9-3.5-3.7H36.8z M27.7,33.6c0.5-2.1,2.3-3.6,4.5-3.6s4.1,1.5,4.5,3.6H27.7L27.7,33.6z"/>
	<path class="st1" d="M36.7,33.6c-0.5-2.1-2.3-3.6-4.5-3.6s-4.1,1.5-4.5,3.6H36.7z M27.6,35.4c0.3,1.8,1.7,3.3,3.5,3.7L27.6,35.4z
		 M33.3,39.1c1.8-0.4,3.1-1.9,3.5-3.7L33.3,39.1z M36.6,35.4c-0.4,2.1-2.2,3.7-4.4,3.7c-2.2,0-4-1.6-4.4-3.7H36.6L36.6,35.4z
		 M27.9,33.6c0.5-2,2.2-3.5,4.3-3.5c2.1,0,3.9,1.5,4.3,3.5H27.9z"/>
	<path class="st1" d="M36.5,33.6c-0.5-2-2.2-3.5-4.3-3.5c-2.1,0-3.9,1.5-4.3,3.5H36.5z M27.8,35.4c0.4,2.1,2.2,3.7,4.4,3.7
		c2.2,0,4-1.6,4.4-3.7H27.8L27.8,35.4z M36.4,35.4c-0.4,2-2.1,3.5-4.2,3.5s-3.8-1.5-4.2-3.5H36.4z M28.1,33.6
		c0.5-1.9,2.1-3.3,4.1-3.3c2,0,3.7,1.4,4.1,3.3H28.1L28.1,33.6z"/>
	<path class="st1" d="M36.3,33.6c-0.5-1.9-2.1-3.3-4.1-3.3c-2,0-3.7,1.4-4.1,3.3H36.3z M28,35.4c0.4,2,2.1,3.5,4.2,3.5
		c2.1,0,3.8-1.5,4.2-3.5H28z M36.2,35.4c-0.4,1.9-2,3.3-4,3.3c-2,0-3.6-1.4-4-3.3H36.2z M28.2,33.6c0.5-1.8,2.1-3.1,3.9-3.1
		c1.9,0,3.5,1.3,3.9,3.1H28.2L28.2,33.6z"/>
	<path class="st1" d="M36.1,33.6c-0.5-1.8-2.1-3.1-3.9-3.1c-1.9,0-3.5,1.3-3.9,3.1H36.1z M28.2,35.4c0.4,1.9,2,3.3,4,3.3
		c1.9,0,3.6-1.4,4-3.3H28.2L28.2,35.4z M36,35.4c-0.4,2.1-2.5,3.5-4.6,3c-1.5-0.3-2.7-1.5-3-3H36L36,35.4z M28.4,33.6
		c0.4-1.7,1.9-2.9,3.7-2.9c1.8,0,3.3,1.2,3.8,2.9H28.4L28.4,33.6z"/>
	<path class="st1" d="M35.9,33.6c-0.4-1.7-1.9-2.9-3.8-2.9c-1.8,0-3.3,1.2-3.7,2.9H35.9z M28.4,35.4c0.4,2.1,2.5,3.5,4.6,3
		c1.5-0.3,2.7-1.5,3-3H28.4z M35.8,35.4c-0.4,1.7-1.8,2.9-3.6,2.9c-1.8,0-3.3-1.3-3.6-2.9L35.8,35.4L35.8,35.4z M28.6,33.6
		c0.4-1.6,1.9-2.7,3.6-2.7c1.7,0,3.1,1.1,3.6,2.7H28.6L28.6,33.6z"/>
	<path class="st1" d="M35.7,33.6c-0.4-1.6-1.9-2.7-3.6-2.7c-1.7,0-3.1,1.1-3.6,2.7H35.7z M28.6,35.4c0.4,1.7,1.8,2.9,3.6,2.9
		c1.8,0,3.3-1.3,3.6-2.9L28.6,35.4L28.6,35.4z M35.6,35.4c-0.4,1.5-1.7,2.7-3.4,2.7c-1.7,0-3.1-1.2-3.4-2.7H35.6z M28.8,33.6
		c0.4-1.4,1.8-2.5,3.4-2.5c1.6,0,2.9,1.1,3.4,2.5H28.8z"/>
	<path class="st1" d="M35.5,33.6c-0.4-1.4-1.8-2.5-3.4-2.5c-1.6,0-2.9,1.1-3.4,2.5H35.5z M28.8,35.4c0.4,1.5,1.7,2.7,3.4,2.7
		c1.7,0,3.1-1.2,3.4-2.7H28.8L28.8,35.4z M35.4,35.4c-0.4,1.5-1.7,2.5-3.2,2.5c-1.5,0-2.9-1-3.2-2.5H35.4L35.4,35.4z M29,33.6
		c0.4-1.3,1.7-2.3,3.2-2.3c1.5,0,2.7,1,3.2,2.3H29L29,33.6z"/>
	<path class="st1" d="M35.3,33.6c-0.4-1.3-1.7-2.3-3.2-2.3c-1.5,0-2.7,1-3.2,2.3H35.3L35.3,33.6z M29,35.4c0.4,1.5,1.7,2.5,3.2,2.5
		c1.5,0,2.9-1,3.2-2.5H29z M35.2,35.4c-0.4,1.4-1.6,2.3-3,2.3c-1.4,0-2.7-1-3-2.3H35.2L35.2,35.4z M29.2,33.6c0.4-1.3,1.6-2.1,3-2.1
		c1.3,0,2.5,0.8,3,2.1H29.2z"/>
	<path class="st1" d="M35.2,33.6c-0.4-1.3-1.6-2.1-3-2.1c-1.3,0-2.5,0.8-3,2.1H35.2z M29.2,35.4c0.4,1.4,1.6,2.3,3,2.3
		c1.5,0,2.7-1,3-2.3H29.2L29.2,35.4z M35,35.4c-0.3,1.2-1.5,2.2-2.8,2.2s-2.5-0.9-2.8-2.2H35L35,35.4z M29.4,33.6
		c0.4-1.2,1.5-1.9,2.8-1.9c1.2,0,2.3,0.8,2.8,1.9H29.4L29.4,33.6z"/>
	<path class="st1" d="M34.9,33.6c-0.4-1.2-1.5-1.9-2.8-1.9c-1.2,0-2.3,0.8-2.8,1.9H34.9L34.9,33.6z M29.4,35.4
		c0.3,1.2,1.5,2.2,2.8,2.2c1.3,0,2.5-0.9,2.8-2.2H29.4L29.4,35.4z M34.8,35.4c-0.3,1.1-1.4,2-2.6,2c-1.2,0-2.3-0.8-2.6-2H34.8z
		 M29.6,33.6c0.4-1,1.4-1.7,2.6-1.7c1.1,0,2.1,0.7,2.6,1.7H29.6z"/>
	<path class="st1" d="M34.7,33.6c-0.4-1-1.4-1.7-2.6-1.7c-1.1,0-2.1,0.7-2.6,1.7H34.7z M29.6,35.4c0.3,1.1,1.4,2,2.6,2
		c1.2,0,2.3-0.8,2.6-2H29.6z M34.6,35.4c-0.3,1-1.3,1.8-2.4,1.8c-1.1,0-2.1-0.8-2.4-1.8H34.6L34.6,35.4z M29.8,33.6
		c0.6-1.3,2.1-1.9,3.4-1.3c0.6,0.3,1.1,0.7,1.3,1.3H29.8z"/>
	<path class="st1" d="M34.5,33.6c-0.6-1.3-2.1-1.9-3.4-1.3c-0.6,0.3-1.1,0.7-1.3,1.3H34.5z M29.8,35.4c0.3,1,1.3,1.8,2.4,1.8
		c1.1,0,2.1-0.8,2.4-1.8H29.8L29.8,35.4z M34.4,35.4c-0.3,0.9-1.2,1.6-2.2,1.6c-1,0-1.9-0.6-2.2-1.6H34.4L34.4,35.4z M30,33.6
		c0.4-0.8,1.2-1.3,2.1-1.3c1,0,1.8,0.5,2.1,1.3H30z"/>
	<path class="st1" d="M34.3,33.6c-0.4-0.8-1.2-1.4-2.1-1.3c-0.9,0-1.7,0.5-2.1,1.3H34.3L34.3,33.6z M30,35.4
		c0.3,0.9,1.2,1.6,2.2,1.6c1,0,1.9-0.6,2.2-1.6H30z M34.2,35.4c-0.3,0.8-1.1,1.4-2,1.4c-0.9,0-1.7-0.5-2-1.4H34.2z M30.3,33.6
		c0.4-0.7,1.1-1.2,1.9-1.2c0.8,0,1.6,0.5,1.9,1.2H30.3z"/>
	<path class="st1" d="M34.1,33.6c-0.4-0.7-1.1-1.2-1.9-1.2c-0.8,0-1.6,0.5-1.9,1.2H34.1z M30.2,35.4c0.3,0.8,1.1,1.4,2,1.4
		c0.9,0,1.7-0.6,2-1.4H30.2L30.2,35.4z M34,35.4c-0.3,0.7-1,1.2-1.8,1.2c-0.8,0-1.5-0.5-1.8-1.2H34L34,35.4z M30.5,33.6
		c0.3-0.6,1-1,1.7-1c0.7,0,1.4,0.4,1.7,1H30.5z"/>
	<path class="st1" d="M33.9,33.6c-0.3-0.6-1-1-1.7-1c-0.7,0-1.4,0.4-1.7,1H33.9z M30.4,35.4c0.3,0.7,1,1.2,1.8,1.2
		c0.8,0,1.5-0.5,1.8-1.2H30.4L30.4,35.4z M33.8,35.4c0.5,0.9,0.1,2-0.8,2.4s-2,0.1-2.4-0.8c-0.3-0.5-0.3-1.1,0-1.6H33.8z M30.7,33.6
		c0.3-0.5,0.9-0.8,1.5-0.8c0.6,0,1.2,0.3,1.5,0.8H30.7z"/>
	<path class="st1" d="M33.7,33.6c-0.3-0.5-0.9-0.8-1.5-0.8c-0.6,0-1.2,0.3-1.5,0.8H33.7z M30.6,35.4c0.5,0.9,1.5,1.3,2.4,0.8
		c0.3-0.2,0.6-0.5,0.8-0.8H30.6z M33.6,35.4c-0.3,0.5-0.8,0.8-1.4,0.8c-0.6,0-1.1-0.3-1.4-0.8H33.6z M30.9,33.6
		c0.3-0.4,0.7-0.6,1.2-0.6c0.5,0,1,0.2,1.3,0.6H30.9z"/>
	<path class="st1" d="M33.4,33.6c-0.3-0.4-0.7-0.6-1.3-0.6s-1,0.2-1.2,0.6H33.4z M30.8,35.4c0.3,0.5,0.8,0.8,1.4,0.8
		c0.6,0,1.1-0.3,1.4-0.8H30.8z M33.4,35.4c-0.3,0.4-0.7,0.6-1.2,0.6c-0.5,0-0.9-0.2-1.2-0.6H33.4z M31.2,33.6c0.3-0.3,0.6-0.4,1-0.4
		c0.4,0,0.7,0.2,1,0.4H31.2L31.2,33.6z"/>
	<path class="st1" d="M33.2,33.6c-0.3-0.3-0.6-0.4-1-0.4c-0.4,0-0.7,0.2-1,0.4H33.2L33.2,33.6z M31,35.4c0.3,0.4,0.7,0.6,1.2,0.6
		c0.5,0,0.9-0.2,1.2-0.6H31z M33.1,35.4c-0.5,0.5-1.2,0.6-1.8,0.1c0,0-0.1-0.1-0.1-0.1H33.1z M31.5,33.6c0.2-0.1,0.5-0.2,0.7-0.2
		c0.3,0,0.5,0.1,0.7,0.2H31.5z"/>
	<path class="st1" d="M32.9,33.6c-0.2-0.1-0.5-0.2-0.7-0.2c-0.3,0-0.5,0.1-0.7,0.2H32.9z M31.2,35.4c0.5,0.5,1.2,0.6,1.8,0.1
		c0,0,0.1-0.1,0.1-0.1H31.2z M32.9,35.4c-0.2,0.2-0.4,0.2-0.7,0.2c-0.3,0-0.5-0.1-0.7-0.2H32.9z M32,33.6c0.2,0,0.3,0,0.5,0H32z"/>
	<path class="st1" d="M32.4,33.6c-0.2,0-0.3,0-0.5,0H32.4z M31.5,35.4c0.2,0.2,0.4,0.2,0.7,0.2c0.3,0,0.5-0.1,0.7-0.2H31.5z
		 M32.5,35.4c-0.1,0-0.2,0.1-0.3,0.1c-0.1,0-0.2,0-0.3-0.1H32.5z"/>
	<path class="st1" d="M71.1,25.9h28.3l7.8,15.6l8-15.8h8.3l-16.1,30.3L94.6,32.4h-5.1v23.1h-8.3V32.4H71.1V25.9z M39,55.5V24.4
		l22.3,17.6V25.8h7.7v30.6L46.5,39v16.6L39,55.5L39,55.5z"/>
</g>
</svg>
